<?xml version="1.0" encoding="UTF-8" standalone="no"?>
<svg
   version="1.0"
   width="316"
   height="316.00006"
   viewBox="0 0 237.00006 237.00011"
   preserveAspectRatio="xMidYMid"
   id="svg74"
   sodipodi:docname="111.svg"
   inkscape:version="1.2.2 (732a01da63, 2022-12-09)"
   xmlns:inkscape="http://www.inkscape.org/namespaces/inkscape"
   xmlns:sodipodi="http://sodipodi.sourceforge.net/DTD/sodipodi-0.dtd"
   xmlns="http://www.w3.org/2000/svg"
   xmlns:svg="http://www.w3.org/2000/svg">
  <defs
     id="defs78" />
  <sodipodi:namedview
     id="namedview76"
     pagecolor="#ffffff"
     bordercolor="#666666"
     borderopacity="1.0"
     inkscape:pageshadow="2"
     inkscape:pageopacity="0.0"
     inkscape:pagecheckerboard="0"
     inkscape:document-units="px"
     inkscape:showpageshadow="2"
     inkscape:deskcolor="#d1d1d1"
     showgrid="false"
     showborder="true"
     inkscape:zoom="1.2646927"
     inkscape:cx="233.25825"
     inkscape:cy="169.21107"
     inkscape:window-width="1366"
     inkscape:window-height="705"
     inkscape:window-x="-8"
     inkscape:window-y="-8"
     inkscape:window-maximized="1"
     inkscape:current-layer="svg74" />
  <metadata
     id="metadata2">
Created by potrace 1.10, written by Peter Selinger 2001-2011
</metadata>
  <g
     transform="matrix(0.01885683,0,0,-0.01903232,-8.8627101,243.30602)"
     fill="#000000"
     stroke="none"
     id="g72"
     style="fill:#214478;stroke-width:0.981013">
    <path
       d="m 6394,12779 c -116,-5 -253,-15 -305,-23 -52,-8 -155,-24 -229,-36 -74,-12 -234,-46 -355,-75 -121,-29 -242,-56 -270,-60 -164,-22 -582,-158 -940,-306 -27,-12 -83,-32 -123,-45 -70,-22 -514,-248 -709,-360 -86,-50 -289,-182 -435,-283 -93,-65 -331,-259 -473,-387 -283,-255 -685,-690 -834,-904 -41,-58 -89,-125 -108,-150 -33,-43 -230,-344 -323,-493 -91,-146 -314,-593 -375,-752 -13,-33 -37,-96 -55,-140 -18,-44 -39,-100 -47,-125 -8,-25 -23,-70 -34,-100 -11,-30 -42,-136 -70,-235 -27,-99 -55,-196 -63,-215 -17,-44 -52,-185 -66,-270 -6,-36 -18,-88 -26,-117 -8,-28 -21,-120 -29,-203 -8,-83 -17,-155 -20,-161 -15,-24 -35,-483 -35,-824 0,-379 6,-483 50,-825 50,-382 88,-583 125,-670 8,-19 37,-124 65,-233 27,-108 56,-210 64,-225 7,-15 17,-43 21,-62 11,-52 74,-239 95,-280 9,-19 25,-62 35,-95 29,-101 302,-661 393,-805 23,-36 65,-103 93,-150 79,-130 199,-309 245,-365 22,-27 78,-97 124,-155 125,-156 338,-388 453,-493 56,-50 142,-130 192,-178 49,-47 122,-110 160,-140 39,-30 115,-91 170,-135 55,-44 132,-102 170,-129 39,-27 129,-90 200,-141 72,-51 191,-128 265,-172 74,-44 162,-97 195,-118 105,-66 252,-143 363,-190 59,-24 136,-58 172,-74 253,-115 323,-144 399,-166 47,-13 104,-31 126,-38 140,-49 464,-140 735,-207 272,-67 801,-126 1215,-136 188,-4 336,-1 535,11 445,27 654,44 727,61 37,8 116,21 174,30 138,19 426,90 844,210 153,44 252,83 490,194 353,165 432,205 545,276 56,36 132,82 168,102 105,58 200,121 292,192 47,37 128,98 180,135 52,38 123,96 158,128 35,32 104,92 155,134 199,165 613,592 795,820 34,44 82,102 105,130 44,53 172,232 243,338 103,156 159,243 174,271 9,17 48,84 85,150 38,66 91,167 118,225 27,58 57,116 66,130 27,40 160,346 200,460 55,159 72,202 89,237 11,21 23,54 26,73 4,19 21,78 37,130 106,340 116,379 124,475 4,44 17,125 30,180 13,55 27,150 30,210 4,61 16,153 27,205 18,84 21,144 25,509 5,419 -3,618 -32,811 -8,52 -19,142 -26,200 -6,58 -19,141 -29,185 -10,44 -24,123 -30,175 -10,84 -33,185 -101,435 -10,39 -30,115 -45,170 -14,55 -31,109 -37,120 -6,11 -37,94 -68,185 -32,91 -69,197 -83,235 -31,82 -276,577 -338,683 -24,39 -65,109 -92,155 -128,216 -364,553 -483,689 -32,37 -96,111 -143,165 -318,367 -857,846 -1225,1090 -60,40 -137,92 -170,116 -33,24 -89,62 -125,85 -98,61 -624,338 -710,372 -41,17 -95,39 -120,50 -25,10 -101,41 -170,69 -69,27 -169,67 -222,89 -98,41 -240,87 -358,117 -138,36 -731,160 -810,170 -30,3 -71,11 -91,16 -61,15 -317,38 -500,44 -343,11 -427,11 -635,4 z m 846,-324 c 166,-14 271,-27 315,-40 11,-3 56,-9 100,-14 104,-11 327,-55 435,-86 47,-14 119,-30 160,-36 41,-6 92,-20 112,-30 21,-11 44,-19 53,-19 18,0 128,-37 164,-56 14,-8 36,-14 48,-14 12,0 24,-4 28,-9 3,-5 19,-12 36,-16 17,-4 74,-26 127,-49 53,-23 124,-50 157,-60 33,-10 67,-24 75,-31 26,-21 146,-75 167,-75 11,0 28,-9 38,-20 9,-10 34,-25 54,-31 20,-7 50,-22 66,-34 36,-26 93,-55 110,-55 7,0 24,-9 38,-20 14,-11 31,-20 38,-20 6,0 26,-10 43,-22 17,-13 53,-34 79,-48 27,-14 60,-35 73,-47 14,-13 30,-23 37,-23 19,-1 125,-68 167,-106 14,-13 47,-35 75,-49 27,-15 63,-38 80,-52 54,-44 246,-183 253,-183 4,0 34,-27 67,-60 33,-33 64,-60 70,-60 15,-1 61,-42 74,-67 6,-13 18,-23 26,-23 7,0 41,-27 75,-59 33,-32 76,-70 95,-82 19,-13 35,-27 35,-32 0,-4 28,-33 62,-65 137,-126 333,-338 431,-466 16,-20 40,-41 53,-46 13,-5 28,-20 33,-33 5,-13 31,-48 58,-78 27,-30 59,-74 72,-98 12,-25 39,-64 59,-87 21,-23 48,-64 62,-90 14,-27 42,-69 63,-93 20,-24 41,-56 45,-72 4,-15 30,-55 57,-90 58,-72 53,-65 95,-149 18,-36 45,-81 61,-101 16,-20 29,-45 29,-55 0,-11 7,-28 15,-38 8,-11 15,-26 15,-34 0,-8 14,-31 30,-52 17,-21 30,-42 30,-48 0,-6 6,-23 14,-39 8,-15 19,-39 25,-53 6,-14 24,-47 41,-75 16,-27 32,-57 36,-65 3,-8 19,-46 35,-84 16,-38 29,-76 29,-85 0,-10 7,-26 15,-37 8,-10 15,-26 15,-34 0,-9 14,-42 30,-73 17,-32 30,-70 30,-85 1,-15 7,-38 15,-52 8,-14 14,-36 15,-49 0,-14 6,-32 13,-40 7,-9 21,-43 31,-76 10,-33 23,-76 29,-95 6,-19 14,-57 18,-85 4,-27 18,-84 33,-125 14,-41 32,-104 41,-140 9,-36 23,-85 31,-110 8,-25 14,-63 14,-85 0,-22 7,-65 15,-95 8,-30 15,-75 15,-100 0,-25 7,-63 15,-85 8,-22 14,-66 15,-97 0,-31 5,-69 11,-85 27,-70 51,-598 39,-868 -19,-415 -21,-447 -35,-503 -8,-31 -15,-82 -15,-114 0,-32 -7,-75 -15,-95 -8,-19 -15,-52 -15,-72 -1,-20 -7,-63 -15,-96 -8,-33 -15,-87 -15,-120 0,-40 -10,-88 -30,-145 -17,-46 -30,-94 -30,-107 0,-13 -9,-40 -20,-60 -11,-21 -20,-48 -20,-60 0,-13 -4,-31 -9,-41 -19,-38 -34,-90 -40,-140 -4,-30 -12,-57 -18,-60 -6,-4 -18,-32 -28,-62 -10,-30 -24,-68 -31,-83 -8,-16 -14,-41 -14,-55 0,-15 -7,-40 -15,-56 -8,-15 -15,-34 -15,-42 0,-7 -13,-36 -30,-64 -16,-28 -30,-64 -30,-79 0,-16 -7,-34 -15,-41 -8,-7 -15,-24 -15,-38 0,-13 -13,-47 -30,-74 -16,-26 -30,-52 -30,-56 0,-5 -13,-26 -30,-48 -16,-21 -30,-48 -30,-59 0,-19 -27,-80 -52,-120 -7,-11 -25,-38 -39,-61 -14,-22 -29,-53 -33,-69 -4,-15 -25,-53 -47,-83 -21,-30 -39,-61 -39,-67 0,-7 -13,-31 -30,-53 -16,-23 -30,-47 -30,-53 0,-7 -20,-34 -45,-60 -25,-26 -45,-54 -45,-62 0,-8 -14,-33 -30,-56 -53,-72 -120,-172 -120,-178 0,-2 -20,-28 -45,-56 -25,-29 -45,-56 -45,-62 0,-5 -20,-31 -43,-56 -24,-25 -53,-59 -65,-76 -12,-17 -36,-47 -54,-66 -18,-19 -60,-66 -94,-103 -72,-82 -175,-197 -213,-239 -15,-16 -65,-64 -111,-105 -45,-41 -122,-114 -170,-162 -49,-47 -99,-92 -111,-99 -25,-13 -107,-81 -187,-156 -25,-24 -55,-46 -66,-49 -12,-4 -35,-18 -53,-33 -18,-14 -47,-38 -65,-53 -18,-15 -44,-36 -57,-47 -13,-12 -30,-21 -36,-21 -7,0 -35,-20 -63,-45 -27,-25 -57,-45 -65,-45 -8,0 -20,-7 -27,-15 -7,-8 -18,-15 -24,-15 -7,0 -23,-12 -37,-26 -13,-14 -65,-46 -115,-70 -49,-24 -108,-60 -130,-79 -21,-19 -47,-35 -56,-35 -9,0 -20,-4 -23,-10 -3,-5 -23,-14 -43,-20 -21,-5 -49,-20 -62,-32 -28,-26 -84,-58 -102,-58 -7,0 -66,-27 -132,-60 -65,-33 -126,-60 -136,-60 -10,0 -23,-7 -30,-15 -7,-8 -16,-15 -21,-15 -5,0 -31,-13 -57,-30 -27,-16 -56,-30 -65,-30 -8,0 -28,-6 -44,-14 -15,-8 -55,-22 -88,-32 -64,-18 -119,-37 -173,-60 -18,-8 -39,-14 -46,-14 -8,0 -27,-7 -42,-15 -16,-8 -45,-15 -64,-15 -19,-1 -46,-7 -60,-15 -14,-8 -38,-15 -55,-15 -16,0 -41,-7 -55,-15 -14,-8 -37,-14 -51,-15 -24,0 -65,-13 -124,-40 -11,-5 -49,-12 -85,-15 -36,-4 -79,-11 -96,-16 -18,-5 -54,-14 -80,-19 -27,-4 -87,-15 -132,-24 -121,-22 -442,-53 -700,-66 -417,-22 -971,6 -1287,64 -71,13 -161,29 -200,35 -64,10 -126,22 -257,50 -26,6 -55,14 -65,19 -39,20 -290,82 -330,82 -11,0 -23,4 -28,9 -6,5 -39,18 -75,31 -36,12 -69,25 -75,30 -5,4 -31,11 -57,14 -26,4 -50,11 -53,17 -4,5 -16,9 -28,9 -13,0 -31,6 -42,13 -11,8 -45,22 -75,32 -30,11 -62,24 -70,30 -21,15 -88,45 -101,45 -21,0 -166,67 -174,81 -4,5 -14,9 -23,9 -9,0 -44,14 -77,30 -33,16 -67,30 -75,30 -8,0 -28,14 -44,30 -16,17 -38,30 -48,30 -28,0 -150,71 -177,104 -7,9 -19,16 -27,16 -23,0 -87,33 -144,75 -76,57 -107,75 -124,75 -8,0 -35,20 -59,45 -25,25 -52,45 -60,45 -8,0 -25,10 -38,21 -13,12 -47,36 -74,54 -28,18 -57,41 -65,50 -7,9 -30,25 -49,35 -20,10 -51,35 -70,55 -18,20 -48,43 -67,51 -18,8 -45,30 -60,49 -15,20 -41,42 -58,49 -17,8 -77,58 -133,112 -175,170 -254,244 -263,244 -5,0 -22,19 -39,43 -16,23 -75,89 -130,147 -56,58 -101,110 -101,116 0,5 -20,27 -43,47 -24,21 -53,54 -63,75 -10,20 -39,60 -64,88 -101,114 -115,130 -134,159 -12,17 -30,46 -40,65 -11,19 -39,61 -63,94 -24,32 -43,65 -43,73 0,8 -20,38 -45,66 -25,29 -45,57 -45,63 0,7 -7,14 -15,18 -8,3 -15,13 -15,23 0,10 -7,27 -15,37 -8,11 -15,26 -15,34 0,8 -18,34 -40,60 -22,25 -43,57 -46,71 -9,38 -62,143 -83,164 -6,6 -11,20 -11,31 -1,12 -12,39 -25,61 -14,22 -28,47 -31,55 -19,46 -41,86 -51,93 -7,4 -13,14 -13,20 0,7 -13,44 -30,82 -16,39 -30,82 -30,96 0,15 -7,32 -15,39 -8,7 -15,17 -15,23 0,5 -14,39 -30,74 -17,34 -30,75 -30,91 -1,15 -7,38 -15,52 -8,14 -14,35 -15,47 0,12 -8,36 -17,55 -35,70 -33,63 -67,208 -22,91 -67,242 -83,280 -27,64 -43,129 -43,174 0,46 -16,158 -42,286 -6,30 -14,89 -19,130 -4,41 -13,118 -18,170 -25,228 -31,345 -31,611 0,390 26,735 68,909 6,25 16,88 21,140 16,144 27,214 38,236 11,20 28,79 44,154 5,24 14,49 19,54 6,6 10,19 10,31 0,12 7,30 15,41 8,10 15,37 15,59 0,22 7,51 15,65 8,14 14,38 15,53 0,16 6,41 14,55 8,15 22,47 31,72 9,25 23,60 31,78 8,18 14,43 14,56 0,23 31,102 71,179 10,21 19,46 19,55 0,10 7,27 15,38 8,10 15,28 15,40 0,11 7,29 15,40 8,10 15,25 15,32 0,7 14,31 30,54 17,22 30,49 30,58 0,10 7,23 15,30 8,7 15,21 15,32 0,19 23,65 60,123 18,28 55,101 85,170 8,17 25,41 39,54 14,14 26,32 26,42 0,10 5,21 10,24 6,4 16,21 24,38 7,18 32,55 56,82 24,27 49,65 57,85 8,19 32,58 54,87 21,28 49,71 61,95 12,24 41,61 65,84 23,23 51,61 62,85 10,24 35,60 55,78 20,19 36,40 36,47 0,6 20,31 45,55 25,24 45,47 45,52 0,12 81,117 91,117 4,0 20,14 36,31 15,17 48,52 73,78 25,27 50,55 56,62 6,8 26,28 45,46 19,17 39,36 44,42 6,6 23,22 39,35 15,14 40,41 55,59 28,37 159,155 245,222 28,22 63,51 77,65 131,125 159,150 171,150 7,0 39,25 71,55 32,30 68,57 80,61 12,4 36,18 53,33 44,36 112,82 154,105 19,10 46,28 60,40 37,32 88,66 98,66 5,0 15,7 22,15 7,8 19,15 26,15 7,0 44,20 81,45 37,25 73,45 80,45 7,0 32,14 55,30 22,17 45,30 50,30 4,0 25,11 46,23 20,13 51,27 67,31 17,4 47,20 67,37 20,16 41,29 46,29 5,0 34,14 65,30 31,17 67,30 79,30 13,0 32,7 42,15 11,8 30,15 42,15 12,0 27,7 34,15 7,8 19,15 28,15 8,0 23,6 31,14 9,7 59,28 111,46 52,18 100,36 105,40 12,8 108,42 189,65 33,10 71,24 85,31 14,8 35,14 46,14 12,0 25,4 30,8 6,5 44,19 85,31 41,13 82,25 90,28 8,2 51,11 95,18 81,14 139,27 277,63 78,21 164,36 303,52 44,6 98,14 120,19 57,14 250,41 315,44 175,10 774,4 930,-8 z"
       id="path4"
       style="fill:#214478;stroke-width:0.981013" />
    <path
       d="m 6361,12400 c -29,-5 -110,-11 -180,-15 -69,-4 -148,-13 -175,-21 -27,-8 -69,-14 -93,-14 -25,0 -65,-7 -91,-15 -45,-14 -135,-29 -272,-44 -36,-4 -78,-13 -93,-19 -16,-7 -41,-12 -56,-12 -15,0 -31,-4 -36,-9 -13,-11 -130,-51 -153,-51 -9,0 -26,-7 -36,-15 -11,-8 -41,-15 -66,-15 -25,0 -55,-7 -66,-15 -10,-8 -36,-15 -57,-15 -21,0 -45,-7 -53,-15 -9,-8 -26,-15 -38,-15 -13,0 -29,-7 -36,-15 -7,-8 -20,-15 -29,-15 -10,0 -26,-7 -37,-15 -10,-8 -33,-15 -49,-15 -17,0 -70,-20 -118,-45 -48,-25 -101,-45 -116,-45 -16,0 -34,-7 -41,-15 -7,-8 -18,-15 -26,-15 -13,0 -73,-24 -104,-41 -8,-4 -38,-20 -67,-34 -28,-14 -55,-30 -58,-35 -3,-6 -16,-10 -28,-10 -12,-1 -40,-12 -62,-25 -22,-14 -47,-27 -55,-30 -8,-4 -26,-12 -40,-19 -63,-33 -97,-51 -125,-64 -16,-9 -46,-28 -66,-44 -20,-15 -46,-28 -57,-28 -11,0 -25,-7 -32,-15 -7,-8 -19,-15 -26,-15 -25,0 -83,-36 -125,-79 -23,-22 -48,-41 -56,-41 -8,0 -40,-19 -71,-43 -31,-23 -83,-59 -114,-80 -31,-21 -68,-48 -81,-60 -13,-12 -43,-33 -68,-46 -24,-13 -53,-33 -64,-45 -11,-13 -47,-43 -80,-68 -33,-25 -82,-66 -109,-92 -27,-25 -53,-46 -59,-46 -10,0 -43,-31 -170,-156 -45,-45 -99,-93 -119,-109 -21,-15 -38,-31 -38,-35 0,-4 -53,-61 -118,-126 -65,-65 -129,-133 -142,-150 -89,-112 -146,-178 -194,-230 -31,-32 -56,-63 -56,-69 0,-6 -19,-33 -43,-60 -23,-28 -51,-68 -62,-90 -11,-22 -35,-56 -53,-76 -41,-44 -81,-108 -82,-129 0,-9 -20,-38 -45,-67 -25,-28 -45,-57 -45,-64 0,-6 -17,-32 -37,-57 -41,-49 -53,-69 -106,-178 -20,-39 -49,-86 -66,-105 -18,-20 -31,-44 -31,-60 0,-15 -7,-32 -15,-39 -8,-7 -15,-20 -15,-30 0,-9 -13,-36 -30,-58 -16,-23 -30,-48 -30,-55 0,-7 -7,-22 -15,-33 -8,-10 -15,-28 -15,-40 0,-11 -7,-29 -15,-40 -8,-10 -15,-29 -15,-40 0,-12 -6,-27 -14,-33 -8,-6 -23,-34 -35,-61 -12,-27 -26,-52 -31,-55 -6,-3 -10,-16 -10,-28 0,-12 -7,-31 -15,-41 -8,-11 -15,-32 -15,-47 0,-14 -7,-32 -15,-39 -8,-7 -15,-18 -15,-26 0,-7 -14,-42 -30,-77 -17,-36 -30,-79 -30,-95 0,-16 -7,-43 -15,-58 -8,-16 -15,-41 -15,-55 0,-15 -7,-32 -15,-39 -8,-7 -15,-27 -15,-44 0,-17 -7,-40 -15,-50 -8,-11 -15,-31 -15,-45 -1,-14 -7,-37 -15,-51 -8,-14 -14,-52 -15,-86 0,-37 -6,-68 -15,-80 -8,-10 -15,-30 -15,-44 0,-14 -7,-36 -15,-50 -8,-14 -14,-53 -15,-91 0,-41 -5,-72 -15,-85 -8,-10 -15,-31 -15,-45 0,-15 -7,-43 -15,-62 -9,-21 -15,-68 -15,-109 0,-40 -5,-91 -10,-113 -5,-22 -12,-107 -16,-190 -3,-82 -12,-170 -19,-195 -18,-61 -21,-629 -4,-662 7,-12 14,-79 16,-152 2,-72 9,-169 15,-216 5,-47 13,-132 17,-190 4,-58 12,-115 19,-127 7,-12 12,-41 12,-65 0,-24 13,-81 30,-128 16,-47 30,-99 30,-116 0,-17 7,-37 15,-44 10,-8 15,-31 15,-64 1,-28 7,-62 15,-76 8,-14 14,-46 15,-72 0,-26 4,-49 9,-53 15,-9 43,-66 51,-105 5,-19 13,-48 18,-65 6,-16 18,-57 28,-90 9,-33 20,-67 25,-75 5,-8 14,-26 19,-40 6,-14 14,-34 19,-45 20,-50 34,-93 38,-122 3,-18 11,-38 19,-44 8,-6 14,-23 14,-36 0,-14 13,-42 29,-62 38,-49 61,-95 61,-124 0,-14 7,-30 15,-37 8,-7 15,-23 15,-36 0,-12 5,-26 11,-29 5,-4 14,-17 20,-28 5,-12 13,-29 18,-37 4,-8 28,-55 51,-103 24,-49 52,-93 62,-98 10,-5 18,-20 18,-32 1,-12 12,-40 25,-62 14,-22 29,-49 34,-60 5,-11 28,-42 50,-69 23,-26 41,-56 41,-65 1,-9 14,-34 30,-56 49,-67 83,-118 102,-155 10,-19 25,-38 33,-43 8,-4 15,-13 15,-19 0,-5 14,-27 30,-48 17,-21 30,-44 30,-50 0,-7 16,-28 35,-47 20,-19 47,-54 62,-76 14,-23 43,-58 65,-78 22,-20 45,-45 51,-57 44,-76 576,-622 607,-622 6,0 39,-29 73,-64 35,-35 74,-67 87,-71 13,-4 50,-34 82,-66 32,-33 65,-59 73,-59 8,0 35,-20 61,-45 25,-25 52,-45 59,-45 8,0 35,-20 62,-45 26,-24 55,-45 64,-45 8,0 25,-13 37,-30 14,-18 32,-30 45,-30 13,0 38,-15 57,-35 18,-19 47,-41 64,-50 37,-18 54,-28 81,-43 11,-7 27,-15 35,-19 8,-3 31,-19 51,-35 20,-15 42,-28 48,-28 16,0 64,-27 163,-93 57,-37 97,-57 117,-57 19,0 54,-16 95,-45 37,-25 72,-45 80,-45 7,0 19,-7 26,-15 7,-8 20,-15 30,-15 10,0 45,-13 78,-30 34,-16 67,-30 75,-30 8,0 20,-7 27,-15 7,-8 27,-15 45,-15 19,0 47,-7 64,-15 17,-8 45,-22 62,-30 17,-8 36,-15 44,-15 7,0 18,-7 25,-15 7,-8 21,-15 30,-15 10,0 31,-6 47,-14 33,-17 115,-42 161,-50 18,-3 56,-17 86,-31 29,-14 66,-25 83,-25 16,0 38,-7 49,-15 10,-8 35,-15 55,-15 20,0 53,-7 72,-15 20,-8 54,-15 75,-15 21,0 47,-7 58,-15 10,-8 35,-15 55,-15 19,0 44,-7 55,-15 11,-8 41,-14 73,-15 29,0 74,-7 100,-15 25,-8 102,-19 171,-24 184,-15 284,-28 322,-39 18,-6 105,-13 193,-17 88,-3 192,-8 230,-11 202,-13 381,-14 448,-3 39,6 117,14 172,18 55,3 105,9 112,14 6,4 68,12 136,17 68,5 136,14 151,20 15,5 70,10 122,10 62,0 107,5 131,15 19,8 52,15 72,15 20,1 47,7 61,15 14,8 41,15 60,15 19,0 44,7 54,15 11,8 38,15 60,15 23,0 50,7 60,15 11,9 42,15 70,15 29,0 59,7 70,15 11,8 31,15 45,15 13,0 32,6 40,14 20,17 112,46 145,46 24,0 71,17 128,46 14,8 35,14 45,14 11,0 28,7 39,15 10,8 26,15 35,15 9,0 22,7 29,15 7,8 22,15 34,15 11,0 30,7 40,15 11,8 32,15 47,15 14,0 32,7 39,15 7,8 20,15 30,15 10,0 23,7 30,15 7,8 18,15 25,15 7,0 18,7 25,15 7,8 21,15 31,15 24,0 133,56 180,92 20,15 50,28 65,28 18,0 62,22 119,60 49,33 96,60 103,60 16,0 63,25 112,60 47,34 71,48 97,59 11,6 24,15 28,20 3,6 15,11 27,11 11,0 43,20 70,45 28,25 58,45 67,45 9,0 31,13 49,28 18,15 59,48 90,74 31,26 64,48 73,48 9,0 35,20 58,45 23,25 48,45 56,45 8,0 40,24 72,54 62,57 139,125 161,141 8,6 48,42 90,82 43,39 89,82 103,95 55,49 98,90 147,141 15,16 88,92 162,169 74,77 144,155 156,174 11,18 46,60 77,93 31,33 57,68 57,79 0,11 20,36 45,56 25,21 45,45 45,54 0,9 20,39 44,66 24,26 53,67 65,90 24,46 82,130 112,162 10,11 19,29 19,40 0,12 13,34 30,50 16,16 30,35 30,41 0,7 20,42 45,79 25,36 45,72 45,80 0,8 19,45 43,82 48,75 77,135 77,158 0,9 13,33 29,53 15,20 38,64 50,99 11,34 26,73 33,85 6,12 15,29 19,37 43,83 80,166 97,220 36,112 44,133 73,196 16,33 29,73 29,90 1,16 7,47 15,69 8,22 15,46 15,52 0,7 14,35 30,61 22,36 30,62 30,94 0,25 7,62 15,81 8,20 15,55 15,78 0,44 26,146 42,166 6,7 13,43 15,80 3,38 11,78 19,90 8,12 14,45 14,73 0,28 5,61 12,73 7,12 15,69 19,127 4,58 12,139 19,180 7,49 12,250 12,575 0,419 -2,514 -16,589 -9,49 -16,122 -16,163 0,43 -6,89 -15,110 -8,19 -15,59 -15,87 0,30 -6,60 -15,72 -8,10 -15,42 -15,69 0,28 -7,61 -15,75 -8,14 -15,36 -15,50 0,14 -7,34 -15,44 -9,12 -15,42 -15,78 0,32 -7,75 -15,95 -8,19 -15,47 -15,60 0,14 -6,39 -13,56 -20,46 -38,98 -46,132 -4,17 -13,40 -19,52 -7,12 -12,42 -12,66 0,27 -6,49 -15,57 -8,7 -15,25 -15,39 0,15 -7,36 -15,47 -8,10 -15,26 -15,35 0,9 -7,22 -15,29 -8,7 -15,25 -15,41 0,15 -7,34 -15,43 -8,8 -15,30 -15,50 0,19 -4,37 -9,40 -12,8 -51,83 -51,99 0,7 -13,28 -30,47 -17,21 -29,47 -30,65 0,17 -7,39 -15,49 -8,11 -15,32 -15,47 0,14 -7,32 -15,39 -8,7 -15,16 -15,21 0,4 -12,25 -26,46 -14,21 -28,50 -31,65 -3,15 -12,33 -19,39 -8,6 -14,19 -14,28 0,10 -13,30 -30,46 -16,16 -30,36 -30,46 0,9 -7,22 -15,29 -8,7 -15,27 -15,46 0,18 -6,37 -12,41 -27,17 -108,126 -108,145 0,10 -20,41 -45,67 -25,26 -45,53 -45,60 0,20 -37,81 -64,106 -14,13 -26,28 -26,33 0,5 -9,17 -21,28 -12,10 -30,36 -40,56 -10,20 -35,50 -54,65 -19,15 -35,35 -35,44 0,9 -7,22 -15,29 -8,7 -15,20 -15,29 0,9 -20,37 -45,61 -25,24 -45,48 -45,54 0,5 -28,39 -62,76 -77,81 -104,112 -148,170 -26,34 -165,177 -282,288 -4,4 -34,35 -66,70 -32,34 -62,62 -67,62 -9,0 -206,179 -218,198 -4,6 -15,12 -24,12 -9,0 -41,26 -72,58 -31,31 -77,66 -101,76 -25,11 -53,30 -63,43 -11,13 -39,35 -63,49 -24,14 -44,29 -44,33 0,4 -17,17 -38,28 -20,12 -48,33 -61,47 -14,14 -33,26 -44,26 -10,0 -44,22 -75,48 -58,49 -154,102 -184,102 -9,0 -38,20 -65,45 -32,30 -57,45 -74,45 -15,0 -32,7 -39,15 -7,8 -16,15 -21,15 -5,0 -28,12 -52,27 -44,29 -95,51 -137,60 -14,3 -32,11 -40,17 -8,6 -31,20 -50,30 -19,11 -54,32 -78,48 -24,15 -51,28 -60,28 -9,1 -28,7 -42,15 -14,8 -33,14 -44,15 -10,0 -35,14 -56,30 -21,17 -47,30 -58,30 -11,0 -25,7 -32,15 -7,8 -27,15 -44,15 -17,0 -58,14 -89,30 -32,17 -66,30 -75,30 -10,0 -28,7 -40,16 -12,8 -46,20 -75,25 -110,21 -133,27 -162,43 -16,9 -42,16 -56,16 -14,0 -43,11 -63,25 -21,14 -51,25 -70,25 -17,0 -41,7 -52,15 -10,8 -35,15 -55,15 -19,0 -44,6 -54,14 -14,10 -26,11 -47,4 -16,-6 -39,-7 -51,-3 -21,6 -90,20 -217,44 -30,6 -66,15 -80,21 -60,24 -245,33 -710,36 -267,1 -509,-2 -539,-6 z m 453,-425 c 11,-8 32,-15 48,-15 36,0 50,-27 40,-77 l -8,-38 -117,-3 -117,-3 -15,-29 c -39,-76 -4,-115 93,-104 38,4 73,2 97,-6 34,-11 37,-15 31,-42 -3,-17 -6,-37 -6,-44 0,-11 -21,-14 -93,-14 -113,0 -137,-13 -137,-76 1,-44 16,-69 51,-82 28,-11 139,-9 157,2 7,4 21,4 33,1 18,-6 20,-14 17,-73 l -3,-67 -75,2 c -118,2 -222,2 -265,0 l -40,-2 -7,255 c -3,140 -11,275 -17,300 -14,61 -13,66 5,84 10,11 34,16 74,16 32,0 62,5 65,10 4,6 21,8 40,4 18,-3 42,-1 52,5 26,15 75,13 97,-4 z m 381,-30 c 61,-8 113,-15 117,-15 3,0 25,-17 47,-37 41,-38 41,-39 49,-128 4,-49 4,-112 0,-140 -3,-27 -7,-80 -7,-116 -1,-44 -6,-71 -15,-78 -8,-7 -17,-22 -20,-34 -3,-12 -28,-39 -56,-60 -55,-41 -56,-42 -263,-38 -92,1 -109,10 -91,49 4,9 9,55 10,102 11,331 21,459 38,484 20,31 35,32 191,11 z m -853,-28 c 4,-7 8,-88 8,-180 0,-125 4,-175 14,-195 9,-17 15,-67 17,-132 3,-93 1,-105 -17,-116 -75,-48 -95,-14 -103,177 -5,106 -10,141 -24,162 -10,15 -22,25 -27,22 -6,-4 -10,-73 -10,-160 0,-125 -3,-161 -17,-190 -16,-33 -20,-36 -57,-33 -32,2 -42,7 -44,23 -3,19 -26,74 -44,105 -14,25 -36,101 -45,158 -5,32 -35,58 -53,47 -15,-9 -12,-91 5,-132 8,-19 15,-56 15,-80 0,-25 7,-60 16,-78 25,-53 16,-69 -38,-75 -59,-7 -68,-4 -68,25 0,13 -5,36 -11,52 -7,15 -15,64 -20,108 -11,109 -34,244 -48,278 -6,16 -11,42 -11,58 0,17 -7,44 -16,61 -16,31 -16,33 8,53 19,16 40,21 101,23 71,3 79,1 97,-20 11,-13 19,-37 20,-55 0,-17 4,-34 9,-37 4,-3 11,-23 15,-44 3,-22 13,-45 21,-52 8,-7 15,-25 15,-41 0,-27 22,-59 40,-59 20,0 32,44 25,95 -4,36 -1,65 9,96 9,24 16,67 16,96 0,51 1,52 33,56 51,8 161,-3 169,-16 z m 1341,-36 c 18,-18 19,-22 6,-53 -8,-18 -13,-36 -12,-40 1,-3 -5,-46 -13,-95 -9,-48 -22,-128 -30,-178 -47,-294 -37,-270 -104,-270 -66,0 -82,18 -61,67 8,18 17,71 20,118 4,47 12,95 19,107 7,13 12,63 12,121 0,67 5,112 15,136 9,20 13,41 9,47 -10,17 5,57 24,63 33,9 95,-3 115,-23 z m 439,-89 c 6,-6 17,-12 23,-12 6,0 23,-12 37,-27 28,-30 43,-118 27,-160 -7,-19 -13,-21 -46,-16 -42,6 -73,28 -73,51 0,56 -107,85 -146,40 -40,-47 -64,-88 -64,-110 0,-13 -7,-41 -15,-63 -8,-22 -14,-65 -15,-96 0,-61 14,-81 77,-113 l 33,-16 42,45 c 23,25 51,45 61,45 14,0 77,-52 77,-64 0,-21 -41,-72 -85,-105 -48,-37 -60,-41 -110,-41 -57,0 -76,8 -147,63 -27,20 -38,37 -38,55 -1,15 -7,38 -15,52 -19,33 -19,156 0,210 8,23 15,64 15,90 0,36 7,56 29,87 44,61 103,103 144,103 20,0 38,4 41,8 7,11 132,-10 148,-26 z m -2869,-44 c 22,-17 28,-97 7,-108 -33,-16 -87,-33 -132,-39 -54,-8 -71,-20 -88,-62 -11,-27 -10,-34 7,-57 25,-33 81,-43 100,-16 7,9 34,20 60,25 26,4 56,10 65,14 13,5 21,-2 31,-27 30,-71 30,-77 4,-87 -14,-6 -28,-15 -32,-20 -3,-6 -22,-11 -41,-11 -19,0 -53,-9 -74,-20 -35,-18 -40,-25 -40,-54 0,-19 8,-44 18,-57 17,-20 27,-22 83,-20 35,1 77,9 93,17 50,24 74,18 91,-22 8,-20 15,-47 15,-59 0,-29 -39,-55 -83,-55 -19,0 -51,-7 -70,-15 -20,-8 -47,-15 -59,-15 -13,0 -41,-12 -62,-26 -29,-20 -43,-24 -58,-17 -21,9 -45,62 -57,128 -4,22 -19,65 -33,95 -47,103 -58,131 -58,153 0,13 -7,32 -15,43 -8,10 -15,29 -15,42 0,12 -12,46 -26,74 -22,44 -24,54 -13,75 7,13 24,26 38,30 14,3 35,12 46,19 11,8 35,14 55,14 19,0 44,7 54,15 11,8 32,15 47,15 14,0 32,6 39,14 10,13 23,17 76,25 5,0 18,-5 27,-11 z m 3304,-89 c 54,-20 73,-48 73,-103 0,-28 -7,-69 -15,-91 -9,-25 -14,-80 -15,-148 0,-72 -5,-119 -15,-144 -9,-22 -15,-67 -15,-118 0,-46 -3,-90 -6,-99 -8,-22 -36,-20 -78,5 -34,20 -36,24 -36,75 v 53 l -61,31 c -34,16 -71,30 -83,30 -26,-1 -66,-33 -66,-54 0,-20 -19,-31 -33,-17 -6,6 -23,11 -38,11 -39,0 -42,12 -14,54 14,20 25,39 25,43 0,3 14,22 30,43 18,23 30,50 30,68 0,16 7,35 15,42 8,7 15,17 15,23 0,5 20,35 45,65 25,30 45,60 45,67 0,7 20,40 45,74 25,34 45,65 45,71 0,26 60,37 107,19 z m -3790,-74 c 11,-8 23,-29 26,-47 3,-18 8,-44 12,-58 5,-22 0,-27 -33,-42 -21,-10 -45,-18 -54,-18 -8,0 -21,-12 -29,-26 -12,-24 -11,-31 14,-75 15,-27 27,-58 27,-68 0,-11 4,-23 10,-26 16,-10 50,-95 50,-125 0,-15 7,-33 15,-40 8,-7 15,-20 15,-30 0,-10 7,-23 15,-30 25,-21 19,-76 -11,-99 -15,-12 -35,-21 -45,-21 -21,0 -79,71 -79,97 0,11 -7,28 -15,39 -8,10 -15,29 -15,41 0,13 -13,45 -30,71 -16,27 -30,54 -30,59 0,6 -7,16 -15,23 -8,7 -15,21 -15,31 0,10 -8,34 -17,53 -16,31 -23,36 -55,36 -21,0 -41,-6 -45,-14 -4,-7 -18,-18 -29,-24 -31,-16 -91,39 -96,87 -3,34 -2,35 54,55 32,12 63,27 70,34 6,6 21,12 33,12 11,0 40,16 64,35 25,20 56,38 70,41 51,11 91,26 96,35 8,13 17,11 42,-6 z m 4231,-130 c 22,-6 30,-29 13,-39 -12,-8 -39,-67 -85,-186 -3,-8 -10,-22 -15,-30 -26,-45 -41,-80 -41,-93 0,-8 -7,-20 -15,-27 -8,-7 -15,-24 -15,-39 0,-14 -5,-33 -10,-41 -6,-10 -3,-21 12,-37 12,-13 25,-23 30,-23 4,0 27,-13 50,-30 22,-16 47,-30 54,-30 24,0 25,-20 2,-70 -29,-64 -48,-65 -137,-5 -37,25 -76,45 -88,45 -11,0 -26,7 -33,15 -7,8 -20,15 -29,15 -40,0 -52,40 -23,80 19,28 40,78 52,130 15,61 35,106 63,143 15,20 27,48 27,65 0,16 7,35 15,42 8,7 15,26 15,42 0,29 18,66 53,105 l 20,22 31,-23 c 17,-13 41,-27 54,-31 z m -4711,-187 c 32,-35 69,-70 81,-78 12,-8 25,-24 28,-35 4,-11 19,-32 35,-47 16,-15 29,-32 29,-37 0,-6 5,-11 10,-11 6,0 14,-8 17,-17 4,-10 25,-37 47,-60 66,-67 129,-143 124,-148 -2,-2 -26,-16 -52,-30 l -48,-25 -32,35 c -25,27 -40,35 -68,35 -20,0 -41,-7 -48,-15 -7,-8 -18,-15 -25,-15 -8,0 -23,-12 -34,-26 -17,-22 -20,-35 -15,-78 6,-50 5,-54 -26,-80 -22,-18 -42,-26 -59,-24 -24,3 -26,8 -29,52 -2,27 -10,59 -18,70 -8,11 -14,41 -14,66 0,26 -7,55 -15,66 -8,10 -15,31 -15,45 0,14 -7,34 -15,45 -8,10 -15,36 -15,57 0,21 -7,54 -15,74 -8,19 -15,53 -15,75 0,21 -7,52 -15,68 -15,28 -14,29 28,64 67,56 100,51 174,-26 z m 5263,-118 c 21,-16 43,-30 48,-30 6,0 15,-6 19,-13 4,-7 29,-24 54,-37 25,-14 71,-42 102,-63 64,-42 71,-64 35,-103 -36,-38 -75,-31 -128,21 -25,25 -52,45 -62,45 -9,0 -20,5 -23,10 -9,15 -48,12 -73,-6 -16,-11 -22,-25 -22,-53 0,-39 18,-63 55,-75 11,-3 39,-24 63,-46 46,-43 48,-59 13,-107 -16,-22 -41,-31 -41,-14 0,10 -65,51 -81,51 -6,0 -25,11 -43,25 -18,14 -40,25 -48,25 -26,0 -68,-65 -68,-104 0,-31 6,-40 42,-66 22,-16 47,-30 53,-30 7,0 18,-7 25,-15 7,-8 21,-15 32,-15 21,0 34,-23 24,-42 -41,-83 -80,-99 -125,-51 -27,30 -88,63 -115,63 -8,0 -20,9 -26,20 -6,11 -29,32 -50,45 -54,34 -53,62 5,136 25,32 45,66 45,77 0,20 44,87 73,111 9,7 17,21 17,31 0,10 7,23 15,30 8,7 15,22 15,34 0,23 23,60 58,95 13,12 28,36 34,52 13,37 31,37 78,-1 z m -5636,-44 c 20,-23 36,-49 36,-57 1,-8 12,-32 25,-54 14,-22 29,-49 34,-60 5,-11 28,-42 50,-69 32,-38 41,-56 41,-86 0,-21 7,-43 15,-50 11,-9 15,-35 15,-104 0,-104 3,-98 -96,-159 -82,-50 -147,-52 -204,-7 -21,17 -41,30 -45,30 -4,0 -21,16 -38,37 -18,20 -52,56 -77,79 -25,24 -54,61 -65,81 -11,21 -31,48 -45,59 -28,24 -70,101 -70,129 0,10 19,35 42,57 l 42,38 23,-22 c 13,-12 23,-29 23,-37 1,-9 21,-36 45,-61 25,-25 45,-50 45,-57 0,-7 20,-41 45,-75 105,-147 160,-177 224,-121 35,31 38,51 16,94 -8,16 -22,42 -30,58 -8,16 -15,36 -15,45 0,9 -20,37 -45,63 -25,25 -45,52 -45,59 0,17 -40,84 -49,84 -14,0 -44,67 -38,84 4,9 15,16 25,16 10,0 29,11 42,25 13,14 27,25 31,25 4,0 24,-20 43,-44 z m 3126,-205 c 46,-5 85,-4 102,3 22,8 31,7 46,-7 14,-13 37,-17 100,-17 44,0 93,-5 109,-11 15,-6 73,-14 128,-18 96,-8 140,-18 197,-47 14,-8 37,-14 51,-14 14,0 54,-13 89,-28 34,-16 87,-32 116,-35 54,-6 103,-20 157,-43 17,-7 37,-15 45,-18 8,-4 33,-17 55,-31 22,-13 56,-24 76,-25 20,0 42,-7 49,-15 7,-8 23,-15 36,-15 13,0 39,-13 57,-30 19,-16 46,-30 59,-30 13,0 33,-7 44,-15 10,-8 26,-15 35,-15 9,0 22,-7 29,-15 7,-8 19,-15 27,-15 8,0 32,-13 52,-28 20,-15 54,-35 76,-44 65,-26 69,-28 94,-42 13,-8 26,-18 30,-23 14,-21 95,-73 115,-73 12,0 37,-17 56,-36 19,-20 64,-55 100,-79 36,-24 80,-62 99,-84 20,-24 43,-41 55,-41 12,0 37,-17 57,-39 21,-21 62,-50 92,-65 39,-18 56,-33 61,-51 4,-14 13,-25 21,-25 30,0 455,-426 455,-455 0,-7 14,-25 31,-39 16,-14 46,-49 65,-78 19,-28 46,-62 59,-74 13,-11 31,-36 41,-55 9,-19 35,-52 56,-75 45,-48 108,-140 108,-159 0,-7 11,-26 24,-42 13,-15 33,-47 45,-71 12,-24 42,-71 67,-104 24,-33 44,-68 44,-77 0,-9 7,-25 15,-35 8,-11 15,-32 15,-46 0,-16 12,-38 30,-56 16,-16 30,-35 30,-42 0,-7 14,-31 30,-54 17,-22 30,-52 30,-65 0,-13 14,-50 30,-83 17,-33 30,-65 30,-73 0,-7 5,-18 12,-25 12,-12 32,-73 48,-147 11,-53 34,-113 48,-127 7,-7 12,-19 12,-27 0,-9 7,-25 15,-35 8,-11 15,-40 15,-65 1,-25 7,-57 15,-71 8,-14 15,-47 15,-75 0,-27 7,-59 15,-69 8,-11 15,-32 15,-46 0,-14 7,-35 15,-46 8,-10 15,-35 15,-54 0,-19 7,-44 15,-54 10,-13 15,-43 15,-81 0,-34 6,-81 14,-106 13,-40 25,-285 28,-584 2,-196 -14,-562 -28,-612 -8,-28 -14,-71 -14,-95 -1,-23 -7,-61 -15,-83 -8,-22 -15,-55 -15,-73 0,-19 -6,-46 -14,-60 -23,-47 -38,-95 -45,-150 -4,-28 -12,-57 -19,-64 -7,-7 -12,-33 -12,-60 0,-44 -11,-81 -46,-151 -8,-16 -14,-34 -14,-42 0,-7 -7,-18 -15,-25 -8,-7 -15,-25 -15,-40 0,-15 -7,-44 -15,-63 -8,-20 -15,-47 -15,-60 0,-14 -13,-40 -30,-58 -16,-19 -30,-41 -30,-50 0,-9 -7,-22 -15,-29 -8,-7 -15,-25 -15,-41 0,-17 -12,-42 -30,-62 -16,-19 -30,-39 -30,-44 0,-12 -38,-85 -47,-92 -14,-10 -43,-68 -43,-85 0,-9 -20,-45 -45,-82 -25,-36 -45,-71 -45,-78 0,-8 -7,-19 -15,-26 -8,-7 -15,-20 -15,-30 0,-9 -12,-30 -27,-46 -41,-42 -63,-77 -63,-98 0,-10 -17,-35 -37,-56 -57,-56 -77,-81 -106,-130 -14,-25 -40,-59 -57,-75 -17,-17 -38,-45 -47,-63 -8,-17 -37,-50 -64,-73 -27,-22 -49,-47 -49,-54 0,-7 -14,-24 -31,-37 -42,-31 -89,-80 -89,-92 0,-16 -42,-56 -59,-56 -18,0 -61,-39 -61,-56 0,-14 -56,-64 -71,-64 -6,0 -29,-20 -51,-45 -23,-25 -47,-45 -53,-45 -7,0 -37,-24 -67,-53 -30,-28 -64,-59 -75,-67 -41,-31 -82,-60 -87,-60 -3,0 -24,-18 -48,-40 -24,-22 -54,-43 -68,-47 -14,-3 -45,-24 -70,-46 -43,-37 -153,-107 -169,-107 -4,0 -19,-12 -34,-28 -14,-15 -43,-35 -64,-46 -21,-10 -56,-28 -78,-39 -22,-12 -50,-26 -62,-32 -13,-5 -23,-13 -23,-16 0,-4 -33,-17 -72,-29 -40,-13 -82,-29 -93,-37 -11,-7 -26,-13 -33,-13 -8,0 -31,-14 -52,-30 -21,-17 -49,-30 -62,-30 -13,0 -33,-7 -44,-15 -10,-8 -36,-15 -58,-15 -31,0 -47,-8 -88,-45 -34,-30 -59,-45 -78,-45 -15,0 -44,-7 -63,-15 -20,-8 -58,-15 -84,-15 -26,0 -61,-7 -77,-15 -15,-8 -44,-15 -63,-15 -19,0 -47,-7 -61,-15 -40,-21 -135,-45 -184,-45 -23,-1 -61,-7 -83,-15 -22,-8 -60,-15 -84,-15 -25,0 -81,-5 -125,-10 -309,-40 -758,-61 -831,-39 -17,5 -78,13 -135,19 -206,19 -306,31 -386,45 -45,8 -101,15 -125,15 -24,1 -55,7 -69,15 -14,8 -36,14 -48,15 -13,0 -36,6 -50,14 -34,18 -159,46 -205,46 -19,0 -62,14 -95,30 -34,17 -68,30 -76,30 -8,0 -19,6 -23,14 -4,8 -26,19 -48,25 -106,27 -134,34 -179,47 -26,8 -57,14 -67,14 -10,0 -34,9 -54,20 -20,11 -42,20 -50,20 -7,0 -20,6 -27,13 -38,37 -219,147 -241,147 -8,0 -33,14 -55,30 -23,17 -47,30 -52,30 -6,0 -21,11 -33,24 -12,13 -47,34 -77,46 -30,13 -66,33 -80,45 -27,23 -147,95 -158,95 -4,0 -27,20 -51,45 -24,25 -51,45 -60,45 -9,0 -37,21 -61,46 -25,25 -59,54 -76,65 -18,10 -52,38 -77,62 -53,51 -160,144 -196,172 -43,34 -94,87 -143,150 -26,33 -68,80 -93,105 -25,25 -45,49 -45,55 0,6 -20,31 -45,55 -25,24 -45,51 -45,59 0,8 -27,41 -60,73 -33,32 -60,66 -60,76 0,11 -10,27 -21,38 -24,22 -85,111 -113,166 -10,21 -32,50 -47,65 -16,16 -29,35 -29,43 0,8 -7,24 -15,34 -8,11 -15,26 -15,33 0,7 -20,42 -45,79 -25,36 -45,69 -45,73 0,5 -7,14 -15,21 -8,7 -15,26 -15,42 0,18 -12,45 -30,68 -16,21 -30,43 -30,49 0,6 -14,39 -31,73 -41,84 -52,108 -89,208 -18,47 -39,97 -46,112 -8,14 -14,39 -14,56 0,16 -7,35 -15,42 -8,7 -15,26 -15,42 0,17 -7,43 -15,59 -8,16 -22,42 -30,58 -8,16 -15,40 -15,53 0,12 -7,45 -15,72 -8,27 -15,79 -15,116 0,43 -5,73 -15,86 -8,10 -15,38 -15,60 0,23 -7,58 -15,77 -9,22 -15,68 -15,117 0,50 -6,95 -16,118 -13,31 -15,99 -15,447 0,265 4,428 11,460 6,28 15,84 19,125 10,89 28,181 47,233 8,20 14,70 14,110 1,43 6,82 15,97 8,14 14,42 15,62 0,35 32,112 51,124 5,3 9,20 9,38 0,19 7,39 15,46 8,7 15,27 15,44 1,17 7,42 15,56 8,14 14,34 15,46 0,11 11,41 24,65 14,24 34,61 45,82 12,21 21,48 21,61 0,28 25,84 63,143 15,24 27,51 27,62 0,10 7,24 15,31 8,7 15,23 15,37 0,13 19,50 43,81 23,31 53,78 65,104 13,26 27,50 33,53 5,4 9,14 9,23 0,10 20,40 45,69 28,31 45,61 45,76 0,16 16,42 45,71 25,26 45,51 45,55 0,19 95,149 121,167 15,10 37,37 49,61 12,23 31,50 44,60 12,10 38,41 57,68 20,28 45,55 57,61 25,13 62,52 62,67 0,12 156,165 207,204 18,14 33,31 33,38 0,8 17,23 38,36 20,12 58,43 83,68 69,69 139,131 147,131 12,0 85,39 91,48 13,19 155,132 166,132 7,0 19,8 26,17 25,30 92,73 113,73 12,0 61,27 109,60 49,33 96,60 106,60 17,0 57,23 76,44 6,6 31,21 57,34 26,13 50,27 53,33 4,5 17,9 30,9 13,0 36,6 52,14 15,8 48,24 73,36 25,12 63,32 85,46 22,13 54,24 70,24 17,0 41,7 55,15 14,8 34,14 46,15 12,0 40,14 62,30 23,17 54,30 69,30 16,1 39,7 53,15 14,8 41,15 60,15 19,0 46,7 60,15 14,8 40,14 58,15 18,0 43,5 55,12 12,6 38,15 57,19 37,8 85,23 138,45 18,8 53,14 77,14 25,0 71,6 103,14 31,8 134,20 227,26 94,5 199,14 235,18 78,8 464,4 570,-7 z m 2960,-51 c 21,-16 42,-30 48,-30 6,0 22,-20 36,-45 15,-25 34,-45 43,-45 9,0 27,-10 40,-22 20,-18 23,-31 23,-91 0,-66 -3,-75 -45,-143 -25,-39 -45,-75 -45,-79 0,-16 -136,-145 -153,-145 -10,0 -31,-7 -47,-15 -36,-19 -143,-18 -167,1 -10,7 -29,14 -43,14 -17,0 -46,20 -88,60 l -62,61 15,29 c 9,17 19,30 23,30 4,0 16,19 27,41 10,23 25,44 32,46 7,3 13,10 13,15 0,6 20,35 45,64 25,28 45,57 45,63 0,18 42,71 57,71 14,0 63,68 63,88 0,25 44,62 74,62 16,0 44,-12 66,-30 z m -6556,-140 c 25,-10 46,-24 46,-30 0,-15 50,-60 78,-71 12,-5 22,-17 22,-26 0,-10 20,-41 45,-70 25,-28 45,-61 45,-74 0,-12 8,-31 18,-42 23,-26 21,-136 -2,-149 -9,-5 -16,-17 -16,-28 0,-11 -17,-28 -42,-44 -24,-14 -65,-46 -92,-71 -27,-25 -51,-45 -54,-45 -5,0 -222,220 -258,261 -11,13 -36,38 -56,55 -20,17 -39,41 -43,53 -4,12 -27,41 -52,65 l -45,43 25,19 c 14,10 35,26 48,34 13,8 42,33 64,55 74,72 94,83 162,84 40,1 77,-6 107,-19 z m 6974,-213 c 45,-27 41,-50 -23,-112 -30,-29 -55,-57 -55,-63 0,-6 -27,-32 -60,-57 -33,-25 -60,-50 -60,-54 0,-5 -20,-29 -45,-54 -40,-42 -45,-52 -45,-94 0,-63 19,-83 79,-83 60,0 118,30 145,74 12,19 45,53 74,75 28,23 52,46 52,51 0,5 21,30 46,55 47,46 87,58 111,34 6,-6 22,-17 35,-23 14,-7 24,-22 26,-38 3,-27 -4,-34 -93,-84 -11,-6 -33,-30 -50,-54 -17,-24 -39,-48 -50,-54 -11,-6 -48,-37 -84,-68 -35,-32 -69,-58 -76,-58 -7,0 -18,-6 -24,-13 -6,-8 -35,-22 -65,-32 -47,-16 -60,-17 -96,-6 -23,7 -49,21 -58,32 -9,10 -20,19 -25,19 -23,0 -62,46 -78,90 -16,47 -16,55 -2,112 9,34 22,68 29,76 8,7 14,19 14,25 0,7 39,53 87,102 47,50 103,112 125,140 50,62 95,96 116,87 10,-3 32,-14 50,-25 z m -7519,-212 c 29,-19 65,-35 80,-35 17,0 38,-11 54,-28 15,-16 47,-39 70,-51 23,-12 49,-26 57,-30 8,-5 32,-17 53,-27 21,-11 50,-31 64,-46 15,-16 31,-28 37,-28 5,0 29,-9 53,-21 54,-26 57,-54 10,-86 -40,-27 -49,-28 -93,-7 -33,16 -37,16 -69,-1 -68,-37 -78,-49 -79,-97 -1,-30 5,-50 17,-62 22,-23 22,-29 -8,-76 -20,-32 -31,-40 -55,-40 -24,0 -33,7 -50,40 -11,21 -20,45 -20,53 0,7 -13,25 -28,40 -16,15 -45,60 -65,100 -20,40 -54,90 -77,112 -22,21 -40,46 -40,55 0,9 -7,25 -15,36 -8,10 -15,25 -15,33 0,7 -14,30 -30,51 l -31,39 53,55 c 29,31 57,56 63,56 6,0 34,-16 64,-35 z m 7960,-275 c 21,-1 69,-40 86,-71 49,-87 57,-114 45,-144 -7,-16 -15,-41 -18,-55 -5,-24 -40,-90 -48,-90 -14,0 -104,75 -104,86 0,8 7,26 17,40 15,24 15,28 -5,70 -22,44 -22,44 -76,44 -36,0 -58,-5 -67,-16 -7,-8 -35,-31 -63,-49 -75,-50 -136,-126 -136,-168 0,-38 18,-59 71,-81 32,-13 38,-13 58,0 12,8 34,14 49,12 25,-3 27,-6 27,-53 0,-47 -2,-51 -35,-67 -19,-9 -54,-19 -78,-23 -121,-18 -245,98 -229,213 13,86 21,109 53,145 19,20 34,41 34,46 0,13 62,71 77,71 7,0 20,11 29,25 17,27 92,65 128,65 11,0 39,7 61,14 34,12 45,12 74,0 18,-8 41,-14 50,-14 z M 2571,9898 c 46,-24 89,-59 89,-72 0,-8 7,-19 15,-26 8,-7 15,-23 15,-35 0,-13 9,-43 19,-68 l 19,-45 74,-4 c 57,-3 82,-9 114,-30 23,-15 54,-28 70,-30 42,-5 42,-32 -2,-78 -40,-42 -64,-49 -84,-25 -7,8 -27,15 -44,15 -18,0 -37,5 -43,11 -18,18 -116,36 -145,27 -58,-20 -40,-69 42,-112 29,-15 68,-43 87,-62 l 35,-35 -24,-32 c -14,-18 -27,-40 -31,-49 -3,-10 -11,-18 -16,-18 -10,0 -181,127 -241,179 -19,17 -41,31 -48,31 -8,0 -35,18 -60,41 -26,23 -58,45 -71,50 -31,12 -111,70 -111,81 0,4 16,25 35,47 19,21 35,45 35,53 0,9 7,21 15,28 8,7 15,18 15,25 0,8 19,30 43,50 23,20 45,44 48,53 5,14 43,27 120,41 4,0 17,-5 30,-11 z m 8673,-369 c 39,-47 39,-94 0,-136 -14,-15 -43,-48 -63,-73 -19,-25 -60,-71 -91,-103 -30,-32 -59,-66 -65,-76 -5,-11 -33,-37 -62,-59 -28,-23 -54,-50 -58,-62 -3,-11 -11,-20 -16,-20 -6,0 -21,-12 -34,-26 -20,-21 -27,-24 -44,-14 -12,6 -21,17 -21,24 0,8 -7,19 -15,26 -22,18 -19,35 15,73 41,48 38,75 -16,141 -49,60 -52,62 -99,45 -44,-16 -77,-5 -97,32 -24,40 -23,49 5,49 13,0 32,7 43,15 10,8 29,15 40,15 12,0 27,7 34,15 7,8 20,15 29,15 9,0 29,7 45,15 15,8 41,15 56,15 15,0 49,12 76,26 27,15 65,31 84,35 19,4 67,19 105,33 95,34 117,33 149,-5 z M 2297,9424 c 3,-8 -4,-35 -16,-60 -19,-38 -27,-44 -54,-44 -49,-1 -97,-52 -97,-105 0,-41 59,-119 110,-146 25,-13 52,-29 60,-34 8,-6 36,-16 62,-23 57,-14 98,0 146,49 40,41 42,78 7,114 -31,30 -54,32 -88,5 -29,-23 -42,-24 -85,-9 -37,13 -48,36 -27,59 8,9 15,20 15,24 0,14 88,96 103,96 8,0 20,-6 26,-14 6,-7 24,-16 39,-19 15,-3 50,-24 77,-47 28,-23 58,-48 68,-55 25,-22 23,-135 -4,-195 -25,-55 -71,-105 -121,-131 -40,-21 -172,-27 -183,-9 -7,12 -93,50 -113,50 -8,0 -37,14 -64,30 -26,17 -52,30 -56,31 -13,1 -102,122 -102,139 0,10 -7,33 -15,53 -18,44 -9,79 39,141 20,26 36,53 36,59 0,6 12,21 28,34 23,19 39,22 115,23 71,0 89,-3 94,-16 z m 9100,-126 c 13,-12 23,-32 23,-46 0,-13 14,-41 30,-62 17,-21 30,-43 30,-48 0,-6 14,-31 30,-55 17,-25 30,-52 30,-61 0,-9 13,-37 29,-63 30,-48 31,-63 5,-63 -8,0 -33,-13 -56,-30 -22,-16 -44,-30 -48,-30 -10,0 -50,76 -50,95 0,8 -10,25 -22,37 -17,17 -24,19 -37,9 -9,-6 -23,-14 -31,-17 -8,-3 -22,-9 -30,-14 -8,-5 -37,-20 -65,-34 -27,-13 -61,-36 -74,-50 -14,-14 -35,-26 -48,-26 -14,0 -39,-11 -56,-24 -45,-33 -125,-69 -137,-61 -5,3 -10,16 -10,28 0,12 -7,31 -15,41 -8,11 -15,23 -15,27 0,12 105,79 124,79 10,0 35,12 55,28 20,15 52,35 71,46 19,10 40,24 45,31 6,6 21,15 35,18 14,4 40,16 58,27 26,16 32,26 32,54 0,19 -4,38 -10,41 -5,3 -17,22 -26,41 -16,33 -15,36 1,54 10,11 24,20 30,20 7,0 18,7 25,15 18,21 50,19 77,-7 z M 1824,8825 c 11,-8 29,-15 41,-15 39,0 63,-51 30,-64 -8,-3 -15,-12 -15,-19 0,-8 -7,-20 -15,-27 -20,-17 -19,-63 3,-82 9,-9 28,-18 42,-21 51,-10 176,-62 182,-75 6,-14 66,-42 90,-42 12,0 32,-7 42,-15 11,-8 32,-15 47,-15 31,0 45,-26 33,-62 -16,-54 -60,-74 -94,-43 -9,8 -39,17 -66,19 -32,2 -72,15 -112,37 -127,68 -152,79 -200,80 -62,3 -71,-3 -78,-51 -9,-54 -26,-67 -68,-52 -18,7 -40,12 -49,12 -23,0 -39,34 -32,67 10,44 38,107 52,116 7,4 13,15 13,23 0,8 14,42 30,76 17,33 30,69 30,80 0,30 39,88 58,88 9,0 26,-7 36,-15 z m 9820,-7 c 9,-12 16,-30 16,-39 0,-9 7,-22 15,-29 25,-21 15,-54 -17,-58 -14,-2 -32,-10 -38,-18 -7,-8 -21,-14 -32,-14 -11,0 -37,-13 -58,-30 -23,-18 -50,-30 -68,-30 -16,0 -35,-7 -42,-15 -7,-8 -22,-15 -34,-15 -12,0 -26,-4 -31,-9 -23,-20 -146,-81 -165,-81 -11,0 -32,-7 -45,-16 -36,-23 -79,-15 -83,16 -2,14 -7,29 -12,34 -13,13 11,56 31,56 15,0 51,15 99,42 8,4 24,13 35,18 11,6 34,19 50,30 43,27 115,60 134,60 9,1 34,12 56,25 22,14 50,30 63,37 12,6 22,15 22,20 0,4 8,8 19,8 10,0 24,7 31,15 18,21 36,19 54,-7 z m 94,-321 c 10,-9 24,-17 30,-17 14,0 72,-77 72,-95 0,-7 7,-18 15,-25 10,-9 15,-32 15,-75 0,-43 -5,-66 -15,-75 -8,-7 -15,-20 -15,-30 0,-25 -51,-66 -125,-101 -34,-16 -65,-32 -68,-36 -31,-31 -242,-53 -315,-33 -31,8 -59,27 -98,66 l -54,55 v 80 81 l 75,76 c 73,73 113,97 180,109 17,3 37,11 45,18 22,19 44,22 147,20 71,-1 97,-6 111,-18 z M 1708,8270 c 25,0 30,-29 10,-52 -7,-8 -18,-22 -24,-33 -6,-10 -24,-23 -40,-29 -74,-27 -101,-98 -50,-131 22,-15 28,-15 53,-2 15,8 45,39 67,68 21,30 58,69 82,87 83,62 195,38 292,-62 51,-53 52,-56 52,-113 0,-37 -6,-67 -15,-79 -8,-10 -15,-26 -15,-34 0,-8 -18,-34 -39,-57 l -39,-43 h -81 c -92,0 -95,2 -83,70 7,42 10,45 42,50 71,10 104,53 84,109 -11,34 -15,36 -58,39 -51,3 -60,-3 -137,-98 -45,-56 -91,-75 -165,-65 -54,6 -127,49 -145,85 -24,48 -32,102 -21,134 7,18 12,43 12,56 0,28 36,70 61,70 10,0 22,6 26,14 9,15 55,26 88,20 11,-2 30,-4 43,-4 z m 10256,-273 c 30,-74 31,-71 -39,-141 -36,-36 -65,-70 -65,-76 0,-5 -12,-13 -27,-16 -55,-14 -122,-86 -110,-118 7,-18 128,-10 173,11 19,8 54,13 89,11 56,-3 57,-3 70,-42 16,-45 6,-76 -24,-76 -10,0 -32,-7 -47,-15 -16,-8 -53,-15 -82,-15 -29,0 -62,-5 -73,-11 -11,-5 -52,-13 -92,-16 -40,-3 -82,-12 -94,-19 -12,-8 -44,-14 -70,-14 -26,0 -57,-7 -67,-15 -11,-8 -35,-15 -53,-15 -29,0 -36,5 -49,35 -26,64 -18,82 79,154 31,24 57,47 57,52 0,4 20,22 44,40 48,34 59,50 49,74 -4,13 -15,15 -52,9 -25,-3 -55,-12 -67,-19 -11,-7 -45,-15 -75,-17 -30,-2 -62,-8 -71,-12 -26,-12 -70,37 -66,71 2,23 10,29 45,38 23,5 45,13 49,18 4,4 26,7 48,7 23,0 50,6 61,14 11,7 34,16 50,18 17,3 46,11 65,18 154,56 203,70 235,70 17,1 39,7 49,15 30,23 44,18 60,-18 z M 1782,7744 c 15,-8 34,-14 43,-14 9,0 18,-7 21,-15 3,-8 25,-24 49,-35 50,-24 112,-88 121,-125 8,-32 -14,-144 -32,-166 -8,-8 -14,-20 -14,-25 -1,-22 -39,-50 -90,-67 -96,-32 -338,-14 -407,30 -45,29 -103,86 -103,103 0,8 -7,24 -15,34 -10,13 -15,43 -15,81 0,38 5,68 15,81 8,10 15,28 15,38 0,22 37,66 56,66 6,0 17,6 24,14 14,18 55,22 195,17 67,-2 120,-9 137,-17 z m -226,-544 c 11,-8 23,-21 27,-27 4,-7 15,-13 24,-13 9,0 27,-10 40,-22 20,-19 23,-31 23,-98 0,-109 11,-118 150,-122 l 105,-3 -3,-35 c -7,-86 6,-80 -163,-80 -82,0 -209,7 -282,15 -73,8 -152,16 -177,17 l -45,3 -3,115 c -2,91 1,123 14,155 20,46 52,85 70,85 6,0 17,6 24,14 6,8 24,16 38,18 49,5 139,-7 158,-22 z m 10029,-51 c 22,-5 85,-14 140,-18 55,-5 120,-14 145,-19 25,-6 81,-16 125,-22 153,-22 145,-19 145,-51 0,-15 -7,-32 -15,-37 -23,-12 -8,-44 16,-37 14,5 19,1 19,-14 0,-14 -6,-21 -18,-21 -10,0 -32,-11 -50,-23 -17,-13 -62,-36 -99,-51 -38,-16 -81,-34 -98,-41 -16,-7 -59,-21 -95,-31 -36,-10 -74,-24 -85,-31 -11,-7 -30,-13 -44,-13 -13,0 -32,-6 -40,-14 -9,-8 -38,-16 -66,-18 l -50,-3 -5,42 c -9,59 3,83 39,83 48,0 64,33 52,108 -13,83 -27,102 -73,102 -28,0 -40,5 -49,21 -17,32 -29,81 -23,90 7,12 80,11 129,-2 z m 587,-526 c 37,-33 15,-139 -30,-149 -26,-6 -82,-28 -112,-45 -8,-5 -24,-14 -35,-19 -107,-54 -142,-87 -117,-112 5,-5 70,-9 149,-9 137,1 140,1 150,-22 11,-24 7,-74 -9,-93 -14,-19 -68,-25 -127,-14 -62,10 -422,40 -488,40 h -43 v 55 c 0,54 1,55 40,75 21,11 45,20 52,20 13,0 140,61 148,72 3,4 18,11 33,17 34,13 37,48 5,56 -13,3 -79,6 -148,8 l -125,2 -3,49 c -2,27 1,52 7,55 6,4 129,8 273,10 216,3 319,8 357,20 3,0 13,-6 23,-16 z M 1358,6518 c 8,-8 12,-46 12,-104 0,-85 2,-94 22,-108 12,-9 37,-16 55,-16 45,0 68,43 60,116 -6,63 10,84 66,84 h 37 v -79 c 0,-74 2,-80 27,-96 27,-18 44,-18 198,1 64,8 77,-6 73,-73 l -3,-48 -90,-8 c -49,-4 -196,-10 -326,-13 l -237,-5 -7,156 c -9,190 -5,205 58,205 24,0 48,-5 55,-12 z m 468,-466 c 114,-84 141,-143 119,-269 -6,-36 -18,-52 -70,-98 -39,-34 -72,-55 -87,-55 -13,0 -33,-7 -44,-15 -29,-22 -291,-21 -336,1 -41,20 -117,114 -130,161 -27,99 32,199 160,270 56,31 59,31 203,32 145,1 146,1 185,-27 z m 9744,13 c 23,-8 75,-15 114,-15 39,0 98,-5 131,-11 33,-5 92,-12 130,-14 134,-8 194,-17 204,-29 17,-21 0,-185 -29,-266 -38,-109 -65,-123 -241,-128 -101,-3 -133,0 -158,12 -16,9 -43,16 -58,16 -33,0 -105,48 -152,102 l -34,38 3,108 c 4,172 4,173 24,188 24,17 15,17 66,-1 z M 2023,5399 c 33,-18 37,-28 37,-100 0,-42 5,-72 15,-85 8,-10 15,-31 15,-45 0,-15 7,-32 15,-39 8,-7 15,-25 15,-41 0,-34 -32,-59 -77,-59 -18,0 -47,-6 -65,-14 -18,-8 -53,-22 -78,-31 -25,-9 -57,-23 -72,-31 -14,-8 -34,-14 -45,-14 -10,0 -27,-7 -37,-15 -11,-8 -39,-15 -62,-15 -23,0 -58,-7 -77,-15 -20,-8 -52,-15 -72,-15 -30,0 -37,5 -49,33 -7,19 -17,57 -21,85 -4,28 -13,56 -21,63 -8,6 -14,23 -14,38 0,15 -7,37 -16,49 -10,14 -14,38 -12,69 l 3,48 43,3 c 52,4 72,-10 72,-52 0,-17 7,-40 15,-50 8,-11 15,-36 15,-55 0,-39 32,-81 61,-81 10,0 34,8 54,17 39,19 47,53 20,89 -8,10 -15,33 -15,49 0,17 -7,40 -15,53 -27,38 10,72 80,72 15,0 55,-77 55,-105 0,-10 10,-38 21,-62 16,-34 25,-43 38,-37 9,4 31,9 49,12 18,2 37,13 43,24 13,24 3,117 -17,176 -20,53 -16,62 26,77 46,17 48,17 73,4 z m 9484,-24 c 19,-8 46,-15 60,-15 13,0 34,-5 46,-12 12,-6 42,-15 67,-19 47,-7 97,-23 140,-44 14,-7 58,-15 98,-19 97,-8 113,-19 106,-71 -3,-22 -10,-53 -14,-70 -5,-16 -16,-65 -25,-108 -11,-50 -25,-88 -42,-107 l -25,-30 h -114 c -102,0 -118,2 -144,22 -17,12 -30,30 -30,39 0,26 -33,78 -53,85 -11,3 -27,-2 -39,-13 -17,-15 -38,-18 -138,-18 -65,0 -122,3 -126,7 -4,5 1,33 11,63 l 19,55 56,1 c 110,1 194,11 222,25 37,19 37,51 1,65 -16,6 -36,15 -45,20 -10,5 -35,9 -55,9 -21,0 -57,7 -80,16 -37,14 -43,21 -43,46 0,16 7,42 15,58 13,26 21,30 56,30 22,0 56,-7 76,-15 z m -87,-510 c 18,-15 111,-45 139,-45 19,0 34,-6 126,-45 17,-7 37,-16 45,-19 8,-3 22,-10 30,-15 8,-5 34,-14 58,-21 53,-14 60,-29 37,-83 -29,-71 -88,-187 -97,-193 -4,-3 -8,-20 -8,-39 0,-56 -8,-65 -54,-65 -49,0 -98,39 -79,62 6,7 13,24 16,38 9,41 32,96 47,115 31,37 -50,123 -88,93 -33,-26 -51,-54 -52,-78 0,-14 -8,-44 -17,-67 -15,-36 -22,-43 -46,-43 -34,0 -87,26 -87,43 1,6 7,23 15,37 8,14 14,39 15,56 0,17 7,37 15,44 48,39 -38,140 -100,117 -24,-10 -65,-85 -65,-120 0,-44 -33,-87 -67,-87 -14,0 -41,10 -60,21 -31,19 -34,25 -29,52 3,17 12,38 20,46 7,9 16,27 19,41 4,21 19,66 34,105 9,24 32,58 44,65 18,12 172,-1 189,-15 z m -9199,-37 c 34,-42 24,-60 -50,-95 -37,-18 -76,-33 -87,-33 -10,0 -28,-7 -38,-15 -11,-8 -29,-15 -40,-15 -11,0 -27,-6 -35,-14 -27,-23 -133,-76 -153,-76 -35,0 -41,-81 -8,-114 24,-24 10,-54 -35,-76 -61,-30 -87,-24 -100,22 -6,20 -16,43 -23,50 -6,6 -12,18 -12,26 0,8 -6,26 -14,40 -20,39 -46,123 -46,148 0,12 -7,27 -15,34 -8,7 -15,20 -15,29 0,9 -4,21 -10,27 -6,6 -5,17 6,32 12,18 25,22 69,22 44,0 57,-4 69,-22 9,-12 16,-29 16,-37 0,-19 39,-61 56,-61 14,0 85,31 94,41 15,16 80,49 98,49 18,0 74,15 167,45 59,20 85,18 106,-7 z m 181,-392 c 10,-11 18,-31 18,-42 0,-12 7,-27 15,-34 8,-7 15,-24 15,-39 0,-15 5,-32 12,-39 14,-14 -4,-83 -27,-102 -8,-7 -15,-19 -15,-27 0,-16 -38,-52 -55,-53 -6,0 -33,-20 -60,-45 -28,-25 -58,-45 -67,-45 -9,0 -19,-4 -22,-9 -3,-5 -35,-23 -70,-40 -35,-18 -72,-41 -82,-52 -9,-10 -23,-19 -29,-19 -7,0 -18,-7 -25,-15 -18,-22 -70,-20 -70,3 0,9 -9,31 -20,47 -25,38 -25,48 -1,60 93,48 121,64 155,87 21,16 51,28 66,28 15,0 38,12 56,29 16,16 38,30 49,32 25,5 85,84 85,112 -1,31 -30,62 -72,76 -32,10 -41,9 -83,-14 -27,-14 -55,-25 -63,-25 -8,0 -31,-13 -51,-28 -47,-37 -160,-92 -188,-92 -11,0 -23,-6 -26,-14 -3,-7 -14,-16 -26,-19 -16,-4 -28,7 -57,49 l -37,54 23,25 c 13,14 31,25 39,25 9,0 25,7 35,15 11,8 30,15 43,15 21,0 61,18 113,49 8,5 22,12 30,15 8,4 31,16 50,28 42,26 130,37 245,31 66,-4 83,-9 97,-27 z m 8852,3 c 13,-20 13,-26 -5,-60 -19,-39 -20,-39 -81,-39 -50,0 -66,-4 -85,-22 -51,-47 -14,-128 58,-128 46,0 117,35 131,64 15,32 93,86 126,86 15,0 37,-7 48,-15 10,-8 33,-15 49,-15 23,0 42,-12 83,-56 48,-52 52,-61 52,-104 0,-68 -31,-129 -89,-178 -59,-50 -94,-60 -136,-38 -16,9 -38,16 -47,16 -22,0 -24,33 -2,51 8,7 22,25 30,41 12,23 21,28 54,28 22,0 45,7 54,16 21,20 20,63 -1,86 -27,30 -59,22 -104,-27 -23,-25 -50,-45 -60,-45 -10,0 -20,-4 -23,-9 -3,-5 -24,-18 -46,-30 -47,-24 -106,-27 -147,-7 -15,8 -35,18 -43,21 -75,29 -130,112 -130,195 0,50 9,66 77,141 l 46,49 h 88 c 79,0 89,-2 103,-21 z m -314,-384 c 32,-25 64,-45 70,-45 7,0 32,-13 57,-30 24,-16 49,-30 55,-30 7,0 32,-17 57,-38 25,-21 87,-58 136,-82 50,-23 93,-48 97,-54 13,-18 9,-53 -7,-66 -8,-7 -15,-20 -15,-29 0,-9 -20,-37 -45,-61 -25,-24 -45,-49 -45,-55 0,-23 -40,-89 -72,-116 l -32,-29 -20,20 c -12,12 -30,27 -41,34 -19,14 -19,16 18,88 21,40 47,85 58,99 27,34 18,64 -23,85 -24,13 -35,13 -59,4 -26,-11 -69,-74 -69,-102 0,-37 -78,-75 -95,-47 -4,5 -18,14 -31,19 -45,17 -26,70 53,148 24,23 43,51 43,61 0,11 -21,32 -55,54 l -54,35 -51,-51 c -27,-29 -50,-58 -50,-65 0,-23 -43,-72 -64,-72 -35,0 -86,42 -86,72 0,15 4,29 9,32 11,7 51,83 51,97 0,6 12,22 28,37 25,25 52,71 66,115 10,30 54,20 116,-28 z m -8272,-87 c 13,-13 16,-97 4,-113 -10,-13 -69,-55 -79,-55 -4,0 -21,-14 -37,-30 -16,-17 -35,-30 -43,-30 -20,0 -75,-32 -108,-63 -16,-15 -35,-27 -41,-27 -20,0 -64,-41 -64,-60 0,-23 30,-82 48,-93 22,-15 12,-41 -30,-79 -24,-21 -47,-38 -52,-38 -15,0 -56,42 -56,57 0,14 -35,65 -110,159 -22,28 -40,62 -40,75 0,13 -12,37 -26,52 -23,25 -25,32 -15,53 6,13 17,24 25,24 7,0 19,7 26,15 7,8 25,15 41,15 23,0 33,-8 54,-44 14,-23 33,-51 44,-60 16,-15 19,-15 31,-1 7,8 19,15 26,15 8,0 50,27 95,60 44,33 89,60 99,60 10,0 20,7 24,15 3,8 13,15 23,15 10,0 31,14 47,30 16,17 35,30 41,30 7,0 18,7 25,15 15,18 32,19 48,3 z m 7992,-298 c 22,-22 40,-42 40,-45 0,-11 154,-210 173,-224 10,-7 32,-34 48,-60 16,-25 47,-64 69,-87 49,-51 52,-86 13,-111 -16,-10 -38,-28 -50,-40 -29,-30 -43,-29 -108,7 -30,17 -67,30 -83,30 -16,0 -35,7 -42,15 -7,8 -18,15 -25,15 -7,0 -18,7 -25,15 -7,8 -22,15 -34,15 -11,0 -41,14 -66,30 -25,16 -53,30 -62,30 -23,0 -152,67 -172,89 -16,17 -15,20 7,47 13,16 27,37 30,47 7,18 10,17 51,-7 25,-14 51,-26 59,-26 8,0 33,25 56,55 44,57 53,103 26,125 -34,28 -6,120 36,120 10,0 37,-18 59,-40 z m -7766,-22 36,-43 -37,-34 c -21,-18 -74,-57 -118,-87 -44,-29 -91,-64 -104,-78 -14,-14 -32,-26 -41,-26 -10,0 -35,-18 -56,-41 -22,-22 -48,-45 -59,-50 -36,-18 -65,-35 -83,-52 -10,-10 -26,-17 -34,-17 -16,0 -78,63 -78,79 0,4 23,25 50,47 28,21 72,56 98,77 26,21 67,50 92,64 25,15 69,51 98,80 29,29 60,53 68,53 17,0 62,26 87,52 27,27 42,22 81,-24 z m 219,-261 c 42,-36 35,-60 -33,-112 -33,-25 -60,-50 -60,-54 0,-4 -21,-23 -47,-42 -27,-18 -62,-47 -78,-64 -17,-16 -50,-45 -73,-63 -55,-44 -55,-67 3,-123 l 45,-43 -49,-48 c -27,-26 -53,-48 -57,-48 -10,0 -141,140 -183,195 -12,17 -47,55 -76,86 -53,55 -54,56 -34,73 11,9 31,21 45,26 13,5 24,14 24,20 0,20 40,10 56,-15 9,-13 30,-31 47,-40 28,-14 34,-14 64,0 18,9 50,33 71,54 20,20 57,52 82,71 25,18 54,43 65,56 38,43 110,93 136,93 14,1 38,-9 52,-22 z m 7224,-162 c 156,-148 193,-183 252,-235 35,-30 71,-58 80,-61 34,-14 64,-57 57,-83 -7,-28 -93,-114 -194,-195 -90,-72 -118,-70 -219,16 -75,63 -97,103 -88,159 9,60 -4,74 -66,74 -26,0 -51,4 -54,10 -3,5 -25,18 -48,29 -23,10 -55,30 -70,43 l -28,23 28,37 c 41,54 64,61 99,32 16,-13 36,-24 44,-24 8,0 24,-7 34,-15 11,-8 29,-15 41,-15 12,0 30,-7 41,-15 30,-22 81,-19 89,6 7,22 -6,41 -64,93 -100,89 -107,104 -73,149 39,52 59,48 139,-28 z M 3422,3080 c 89,-70 98,-92 82,-205 -13,-90 -52,-119 -101,-73 -20,19 -23,31 -23,99 0,72 -2,79 -26,98 -32,25 -43,26 -69,3 -34,-28 -43,-78 -27,-147 7,-33 19,-66 25,-74 7,-8 11,-46 10,-94 -1,-62 -6,-86 -21,-106 -39,-54 -151,-86 -206,-59 -17,8 -47,22 -66,32 -21,10 -49,37 -68,66 -39,59 -43,116 -11,167 23,37 40,37 91,0 32,-24 43,-46 28,-61 -19,-19 -10,-54 21,-80 32,-28 38,-29 63,-20 21,8 22,112 1,140 -8,10 -15,29 -15,40 0,12 -7,27 -15,34 -39,33 0,147 76,221 52,51 76,59 161,54 35,-1 57,-10 90,-35 z m 6531,-201 c 62,-32 103,-65 189,-154 62,-64 78,-86 78,-110 0,-17 7,-40 15,-52 23,-32 24,-152 2,-168 -10,-7 -17,-19 -17,-27 0,-23 -43,-68 -66,-68 -11,0 -30,-8 -44,-17 -30,-21 -110,-21 -153,0 -18,9 -40,18 -49,21 -20,6 -25,51 -7,61 5,4 14,18 19,31 11,28 54,33 85,10 17,-12 24,-12 57,5 37,19 38,21 38,76 0,76 -25,123 -104,202 -57,56 -70,64 -105,65 -53,1 -91,-33 -91,-82 0,-20 7,-43 16,-53 26,-29 11,-46 -43,-51 -65,-6 -93,5 -93,36 0,14 -8,41 -17,60 -26,55 -6,107 69,179 59,56 60,57 119,57 41,0 73,-7 102,-21 z m -6251,-46 c 32,-31 38,-44 38,-78 0,-23 -7,-50 -15,-61 -8,-10 -15,-34 -15,-52 0,-18 -7,-46 -15,-63 -11,-19 -15,-50 -13,-87 3,-49 6,-57 22,-57 13,0 28,16 45,47 14,25 38,57 53,71 14,13 36,43 47,65 34,68 69,74 115,23 22,-25 16,-58 -17,-92 -13,-13 -45,-58 -72,-99 -27,-41 -69,-97 -92,-125 -24,-27 -43,-56 -43,-63 0,-8 -20,-39 -44,-70 -24,-32 -49,-67 -55,-79 -17,-33 -50,-28 -99,15 l -43,37 12,50 c 15,66 39,198 46,259 4,35 1,51 -8,57 -28,17 -41,8 -66,-47 -14,-32 -34,-59 -47,-64 -11,-4 -30,-25 -41,-46 -27,-55 -45,-74 -70,-74 -21,0 -85,54 -85,72 0,5 16,27 37,48 20,22 45,55 56,73 11,17 43,57 72,87 30,30 68,75 87,98 18,24 54,67 81,96 26,29 47,60 47,68 0,41 35,37 82,-9 z m 5848,-205 c 14,-17 42,-49 63,-71 20,-23 37,-49 37,-58 0,-9 7,-22 15,-29 8,-7 15,-18 15,-24 0,-7 14,-22 30,-34 17,-13 30,-31 30,-40 0,-10 14,-31 31,-48 53,-49 119,-141 125,-173 5,-25 1,-36 -24,-61 -19,-19 -41,-30 -58,-30 -29,0 -74,34 -74,57 0,16 -25,58 -54,91 -20,23 -60,30 -71,12 -3,-5 -15,-10 -26,-10 -28,0 -79,-53 -79,-83 0,-14 16,-43 38,-68 21,-24 41,-51 45,-59 4,-8 12,-23 19,-32 13,-18 5,-28 -57,-65 -43,-26 -48,-27 -64,-3 -8,12 -28,36 -45,52 -29,30 -66,93 -66,114 0,6 -7,17 -15,24 -8,7 -15,19 -15,26 0,8 -20,43 -45,80 -25,36 -45,70 -45,75 0,6 -20,37 -45,69 -53,69 -57,97 -15,125 16,11 30,23 30,28 0,13 23,8 42,-10 10,-9 18,-23 18,-32 0,-9 9,-24 20,-34 11,-9 34,-39 51,-67 29,-48 33,-50 74,-50 51,0 115,33 115,59 0,21 -27,78 -41,86 -5,4 -9,16 -9,29 0,13 -18,40 -45,66 -25,24 -45,52 -45,62 0,19 63,57 95,57 11,0 31,-14 45,-31 z M 4159,2525 c 48,-25 48,-62 -1,-115 -13,-14 -34,-47 -48,-73 -39,-76 -46,-86 -79,-124 -18,-20 -46,-64 -62,-97 -39,-82 -49,-97 -88,-141 l -33,-38 -37,17 c -20,10 -43,22 -51,26 -28,14 -22,39 24,99 25,33 46,66 46,74 0,7 13,27 30,43 16,16 30,36 30,45 0,8 14,28 30,44 17,16 30,36 30,46 0,9 7,22 15,29 8,7 15,21 15,32 0,10 7,21 15,24 8,3 31,33 51,65 39,64 59,72 113,44 z m 442,-434 c 18,-17 39,-31 46,-31 20,0 26,-46 17,-123 -8,-66 -11,-72 -42,-90 -126,-73 -254,-8 -256,129 0,53 1,55 53,102 30,26 65,52 80,59 29,13 44,6 102,-46 z m 4322,-20 c 23,-11 54,-32 68,-48 33,-36 54,-106 39,-132 -5,-11 -10,-28 -10,-39 0,-25 -64,-82 -112,-99 -45,-15 -62,-9 -123,46 -37,32 -64,85 -65,126 0,41 59,135 85,135 7,0 26,7 41,15 35,18 27,19 77,-4 z m -3797,-7 c 21,-5 24,-12 24,-54 0,-30 -6,-52 -15,-60 -8,-7 -15,-20 -15,-29 0,-10 -6,-26 -14,-37 -13,-17 -12,-21 1,-36 9,-10 21,-18 27,-18 6,0 49,31 96,70 89,72 119,83 156,55 10,-8 36,-15 57,-15 25,0 37,-4 37,-14 0,-14 -110,-106 -127,-106 -4,0 -26,-17 -48,-37 l -40,-37 3,-125 c 4,-179 8,-232 23,-268 21,-51 4,-58 -77,-32 -38,11 -75,23 -81,25 -10,2 -13,39 -13,137 0,138 -5,157 -43,157 -20,0 -88,-49 -119,-85 -10,-11 -17,-28 -18,-38 0,-31 -20,-57 -43,-57 -12,0 -41,8 -64,18 -38,15 -43,21 -43,50 0,20 11,48 30,74 17,22 30,48 30,56 0,8 14,31 30,52 17,21 30,46 30,57 0,11 7,28 15,39 8,10 15,29 15,40 0,12 7,27 15,34 8,7 15,20 15,29 0,9 14,31 30,50 18,20 30,45 30,61 0,30 35,62 58,54 8,-2 25,-7 38,-10 z m 3095,-116 c 10,-13 18,-37 19,-54 0,-25 8,-37 41,-60 23,-15 45,-37 50,-49 20,-43 45,-76 79,-100 19,-14 37,-32 40,-40 7,-21 121,-155 131,-155 5,0 9,-9 9,-20 0,-14 -15,-27 -53,-45 -69,-32 -82,-31 -103,4 -22,38 -58,58 -76,43 -8,-6 -34,-12 -58,-14 -40,-3 -47,-7 -62,-38 -9,-19 -17,-53 -18,-75 0,-50 -8,-62 -43,-70 -15,-4 -30,-11 -33,-16 -3,-5 -16,-9 -30,-9 -19,0 -24,5 -25,28 -4,94 -10,175 -18,232 -5,36 -10,132 -11,214 -1,81 -5,158 -10,170 -10,27 -5,35 35,58 45,26 112,23 136,-4 z m -279,-95 c 5,-18 13,-33 18,-33 6,0 10,-12 10,-28 0,-28 -15,-39 -92,-70 -26,-11 -28,-16 -28,-69 1,-35 6,-66 15,-77 8,-11 15,-39 15,-62 0,-25 6,-47 15,-54 8,-7 15,-26 15,-42 0,-17 6,-42 13,-56 8,-15 21,-42 30,-60 29,-58 23,-75 -32,-95 -72,-25 -98,-23 -116,13 -8,16 -15,42 -15,58 0,15 -7,37 -15,48 -8,10 -15,40 -15,65 0,43 -15,108 -42,184 -6,17 -13,43 -15,58 -7,39 -42,51 -95,33 -60,-21 -85,-3 -90,65 -5,77 3,89 57,89 25,0 62,7 82,15 19,8 56,15 82,15 26,0 56,6 67,14 23,16 57,24 98,22 25,-1 31,-7 38,-33 z m -2194,-3 c 54,0 105,-41 139,-110 28,-55 33,-76 33,-139 0,-71 -3,-91 -37,-211 -30,-107 -70,-170 -109,-170 -12,0 -24,-7 -28,-15 -8,-21 -163,-21 -190,0 -11,8 -30,15 -42,15 -12,0 -27,7 -34,15 -7,8 -21,15 -32,15 -10,0 -21,8 -24,18 -3,9 -12,29 -20,44 -20,38 -20,257 1,284 8,10 15,29 15,41 0,12 14,38 30,56 17,19 30,39 30,45 0,20 89,101 117,107 15,3 39,9 53,14 14,4 35,4 48,-1 13,-4 35,-8 50,-8 z m 418,-90 c 34,0 40,-24 20,-79 -9,-25 -16,-69 -16,-97 0,-29 -6,-58 -15,-70 -9,-12 -14,-42 -15,-81 0,-36 -7,-77 -16,-97 -19,-40 -13,-76 16,-94 11,-7 62,-15 113,-18 118,-8 127,-13 127,-68 0,-32 -6,-48 -24,-65 -24,-23 -25,-23 -79,-7 -30,9 -79,16 -109,16 -30,0 -59,5 -65,11 -7,7 -40,15 -75,18 -60,6 -63,7 -66,34 -2,16 4,39 12,52 10,15 16,47 16,84 0,32 7,95 15,138 8,43 15,96 15,118 1,22 7,51 15,65 8,14 14,48 15,77 0,62 25,88 67,72 13,-5 35,-9 49,-9 z m 1234,-23 c 0,-13 5,-28 10,-33 14,-14 52,-83 86,-154 14,-30 30,-62 35,-70 4,-8 18,-34 30,-58 12,-24 34,-58 50,-75 16,-17 29,-42 29,-55 0,-13 14,-41 30,-62 44,-55 40,-87 -10,-80 -8,1 -31,-4 -52,-11 -35,-11 -40,-11 -63,11 -14,13 -25,32 -25,41 0,28 -28,36 -118,31 -77,-4 -83,-6 -96,-31 -8,-14 -17,-41 -21,-59 -5,-24 -13,-33 -33,-38 -15,-3 -39,-10 -54,-14 -22,-7 -30,-5 -37,8 -9,18 1,118 19,182 5,19 10,67 10,106 0,41 6,87 15,107 8,20 15,55 15,77 0,23 5,50 10,60 6,10 12,41 15,67 6,60 23,73 97,73 54,0 58,-2 58,-23 z m -790,-32 c 9,-11 11,-39 7,-101 -3,-46 -4,-91 0,-99 7,-21 52,-19 59,3 11,34 46,102 52,102 4,0 16,18 26,41 25,52 45,62 128,65 61,2 68,0 68,-17 0,-26 -36,-91 -65,-119 -14,-13 -25,-28 -25,-33 0,-5 -9,-21 -21,-35 -17,-22 -19,-34 -13,-76 5,-40 16,-61 50,-101 24,-27 44,-59 44,-70 0,-12 7,-30 15,-41 8,-10 15,-28 15,-39 0,-11 14,-31 30,-45 17,-14 30,-34 30,-47 0,-22 -3,-23 -84,-23 h -84 l -22,48 c -12,26 -26,54 -31,62 -5,8 -13,25 -18,37 -6,11 -15,24 -20,28 -6,3 -11,13 -11,22 0,9 -7,25 -17,35 -18,20 -43,24 -43,7 0,-6 -14,-29 -31,-50 -22,-27 -33,-56 -39,-96 -13,-93 -14,-94 -79,-91 l -56,3 v 302 c 0,281 2,303 19,322 23,26 97,29 116,6 z"
       id="path6"
       style="fill:#214478;stroke-width:0.981013" />
    <path
       d="m 7151,11801 c -8,-5 -18,-36 -22,-68 -5,-32 -13,-78 -18,-103 -6,-25 -10,-75 -11,-111 0,-60 2,-68 25,-83 36,-24 67,-20 113,14 l 42,30 2,78 c 4,166 1,184 -39,220 -36,32 -66,39 -92,23 z"
       id="path8"
       style="fill:#214478;stroke-width:0.981013" />
    <path
       d="m 8419,11388 c -48,-65 -55,-86 -38,-116 11,-20 24,-28 51,-30 45,-4 51,10 46,108 -4,77 -22,89 -59,38 z"
       id="path10"
       style="fill:#214478;stroke-width:0.981013" />
    <path
       d="m 4231,11107 c -16,-16 -14,-70 4,-93 8,-10 15,-27 15,-37 0,-29 31,-67 53,-67 12,0 31,12 42,27 l 22,26 -31,62 c -33,67 -82,105 -105,82 z"
       id="path12"
       style="fill:#214478;stroke-width:0.981013" />
    <path
       d="m 6290,10839 c -30,-4 -94,-12 -142,-18 -47,-5 -95,-14 -106,-20 -12,-6 -33,-11 -49,-11 -15,0 -48,-6 -73,-14 -110,-35 -155,-46 -196,-46 -25,0 -61,-7 -81,-15 -19,-8 -48,-15 -64,-15 -16,0 -43,-6 -61,-14 -143,-61 -184,-76 -208,-76 -15,0 -73,-20 -130,-45 -57,-25 -111,-45 -120,-45 -10,0 -23,-7 -30,-15 -7,-8 -24,-15 -37,-15 -14,0 -42,-13 -63,-30 -21,-16 -43,-30 -49,-30 -7,0 -36,-13 -66,-30 -30,-16 -63,-30 -73,-30 -11,0 -42,-18 -68,-40 -45,-37 -80,-57 -156,-88 -15,-6 -45,-27 -66,-47 -22,-19 -46,-35 -54,-35 -7,0 -29,-13 -48,-30 -19,-16 -39,-29 -43,-30 -5,0 -32,-19 -60,-43 -29,-23 -68,-50 -87,-61 -19,-10 -44,-29 -56,-43 -11,-13 -42,-34 -67,-47 -26,-12 -57,-37 -69,-56 -13,-19 -36,-41 -50,-48 -15,-7 -39,-27 -55,-44 -45,-50 -76,-81 -118,-116 -74,-61 -155,-136 -155,-144 0,-4 -21,-30 -47,-57 -139,-143 -161,-168 -167,-193 -3,-15 -20,-36 -37,-48 -16,-12 -42,-41 -56,-64 -15,-22 -53,-71 -85,-109 -32,-37 -58,-76 -58,-86 0,-10 -7,-24 -15,-31 -8,-7 -15,-16 -15,-21 0,-4 -13,-22 -29,-40 -16,-17 -37,-50 -47,-73 -10,-22 -37,-67 -61,-98 -24,-31 -43,-63 -43,-70 0,-8 -7,-23 -15,-34 -8,-10 -15,-28 -15,-40 0,-11 -11,-35 -25,-54 -14,-19 -34,-53 -46,-76 -11,-23 -26,-45 -34,-48 -9,-3 -15,-18 -15,-35 0,-26 -12,-58 -42,-111 -4,-8 -11,-22 -14,-30 -3,-8 -11,-28 -18,-45 -24,-57 -39,-100 -43,-132 -3,-18 -11,-38 -19,-44 -8,-6 -14,-24 -14,-40 0,-15 -4,-30 -9,-33 -19,-12 -51,-88 -51,-121 0,-19 -6,-52 -14,-72 -8,-21 -17,-64 -20,-96 -2,-32 -9,-64 -14,-70 -8,-11 -15,-32 -57,-174 -8,-28 -15,-62 -15,-75 0,-13 -7,-45 -15,-72 -8,-27 -15,-88 -15,-135 0,-47 -5,-140 -11,-206 -17,-176 -18,-492 -3,-535 8,-22 14,-111 16,-238 3,-138 8,-206 16,-214 7,-7 12,-29 12,-50 0,-21 7,-55 15,-75 8,-19 15,-50 15,-67 1,-17 7,-42 15,-56 8,-14 15,-41 15,-60 0,-19 7,-44 15,-54 8,-11 15,-34 15,-50 1,-17 7,-42 15,-56 8,-14 14,-46 15,-72 0,-26 4,-49 9,-52 14,-9 51,-85 51,-105 0,-10 7,-24 15,-31 9,-7 15,-29 15,-55 0,-26 6,-48 15,-55 8,-7 15,-27 15,-45 0,-21 11,-47 33,-75 43,-58 57,-82 57,-103 0,-9 14,-43 31,-75 18,-31 40,-72 50,-91 10,-19 23,-39 29,-45 5,-5 10,-18 10,-27 0,-9 7,-22 15,-29 8,-7 15,-20 15,-30 0,-9 20,-37 45,-62 28,-29 45,-55 45,-70 0,-13 5,-29 11,-35 13,-13 31,-44 52,-88 8,-16 24,-39 36,-49 11,-11 21,-23 21,-27 0,-18 53,-84 85,-108 19,-13 35,-31 35,-39 0,-8 14,-31 30,-52 17,-21 30,-43 30,-48 0,-6 6,-15 14,-19 7,-4 25,-27 40,-51 14,-23 32,-42 39,-42 8,0 28,-21 46,-46 41,-56 56,-73 189,-207 58,-59 111,-107 118,-107 7,0 35,-27 64,-60 29,-33 57,-60 63,-60 7,-1 32,-21 57,-45 25,-25 52,-45 60,-45 9,0 43,-27 76,-60 32,-33 66,-60 74,-60 9,0 34,-18 55,-41 23,-23 72,-56 115,-76 41,-19 91,-48 111,-64 20,-16 41,-29 46,-29 14,0 81,-36 118,-64 18,-14 36,-26 39,-26 3,0 25,-13 49,-30 25,-16 54,-30 65,-30 11,0 25,-7 32,-15 7,-8 23,-15 37,-15 13,0 26,-7 29,-15 4,-8 14,-15 23,-15 9,0 22,-5 28,-11 6,-6 58,-27 115,-46 57,-19 110,-41 119,-49 8,-8 24,-14 35,-14 10,0 28,-7 38,-15 11,-8 31,-15 45,-15 14,0 35,-7 45,-15 11,-8 34,-15 52,-15 17,0 37,-7 44,-15 7,-8 29,-15 50,-15 21,0 43,-7 50,-15 7,-8 23,-15 35,-15 13,0 47,-12 77,-27 41,-21 74,-28 143,-33 50,-3 100,-12 112,-18 12,-7 48,-12 80,-12 35,-1 66,-6 77,-15 12,-9 42,-15 78,-15 32,0 75,-7 96,-16 32,-14 102,-16 553,-16 434,0 520,2 545,14 16,9 59,18 96,21 38,4 77,11 87,17 11,5 36,10 56,10 20,0 46,5 58,12 12,6 58,15 102,19 82,7 146,22 202,45 17,8 44,14 61,14 16,0 35,7 42,15 7,8 20,15 29,15 9,0 22,5 28,11 6,6 29,15 50,19 51,11 99,28 153,55 25,12 56,26 70,30 13,4 30,14 38,21 7,8 28,14 46,14 18,0 41,7 52,15 10,8 29,15 41,15 12,0 25,5 28,11 4,5 17,15 28,20 12,6 42,21 67,34 25,13 54,24 65,24 12,1 52,23 90,51 39,27 81,55 95,61 14,6 32,15 40,20 8,5 26,14 40,20 14,6 48,28 77,50 29,21 58,39 65,39 17,1 62,41 71,63 4,10 17,22 29,27 37,16 59,32 128,91 36,31 79,65 97,76 42,25 122,93 196,165 33,32 65,58 73,58 7,0 21,12 31,28 9,15 70,79 135,143 65,64 118,122 118,128 0,7 27,39 60,72 33,33 60,68 60,77 0,10 18,36 41,57 22,22 45,49 50,60 5,11 18,34 29,50 11,17 24,40 29,52 6,12 19,24 30,28 25,8 61,64 61,95 0,13 6,31 14,39 30,35 106,153 106,165 0,8 7,19 15,26 8,7 15,21 15,31 0,10 6,22 13,26 7,4 21,26 31,48 10,22 25,53 32,68 8,16 14,41 14,56 0,17 11,38 30,56 17,16 30,33 30,38 0,5 14,26 30,47 20,25 30,50 30,71 0,19 7,43 15,53 8,11 15,32 15,47 0,14 7,32 15,39 8,7 15,18 15,25 0,7 7,18 15,25 9,7 15,29 15,55 0,26 6,48 15,55 9,7 15,29 15,54 0,36 30,143 71,251 12,31 21,86 39,240 6,50 15,115 21,145 6,30 14,102 19,160 5,58 13,125 19,150 13,56 15,522 2,536 -6,5 -14,75 -19,155 -6,81 -15,156 -21,167 -6,11 -11,47 -11,79 0,32 -7,83 -15,113 -8,30 -15,67 -15,81 0,14 -13,66 -30,115 -16,49 -30,101 -30,115 0,14 -7,34 -15,45 -8,10 -15,39 -15,64 0,25 -7,54 -15,64 -8,11 -15,34 -15,50 0,17 -7,40 -15,50 -8,11 -15,30 -15,42 0,13 -4,26 -10,29 -17,11 -50,97 -50,132 0,40 -21,90 -62,147 -15,21 -28,47 -28,57 0,10 -5,21 -10,24 -18,11 -50,83 -50,111 0,16 -14,42 -35,66 -20,21 -40,49 -44,61 -33,85 -48,116 -72,147 -15,20 -35,54 -46,75 -10,22 -36,64 -58,94 -73,98 -105,146 -105,158 0,6 -12,21 -27,33 -16,11 -39,40 -53,64 -30,52 -121,165 -179,222 -22,23 -41,47 -41,53 0,15 -229,241 -245,241 -6,0 -36,28 -66,61 -30,34 -58,65 -64,70 -5,4 -28,23 -50,41 -70,59 -123,98 -132,98 -5,0 -24,16 -43,35 -18,19 -53,43 -76,55 -27,12 -58,39 -81,70 -20,27 -42,50 -49,50 -6,0 -30,14 -52,30 -23,17 -46,30 -50,30 -5,0 -21,14 -37,30 -16,17 -38,30 -50,30 -12,0 -41,14 -63,30 -23,17 -46,30 -51,30 -4,0 -24,13 -42,30 -21,18 -45,30 -63,30 -16,0 -51,14 -78,30 -26,17 -54,30 -61,30 -7,0 -24,11 -39,24 -28,26 -80,51 -138,66 -58,15 -103,34 -139,59 -19,14 -53,28 -75,32 -62,12 -136,34 -186,57 -25,11 -61,24 -80,27 -19,4 -47,14 -62,21 -15,8 -55,14 -88,14 -34,0 -71,5 -83,12 -12,6 -40,15 -62,19 -22,4 -53,11 -70,17 -49,17 -145,34 -225,41 -41,4 -85,12 -97,19 -25,14 -808,15 -903,1 z m -689,-924 c 3,-44 11,-93 17,-108 7,-16 12,-51 12,-79 0,-40 8,-65 34,-112 19,-34 46,-71 60,-83 14,-13 26,-29 26,-36 0,-7 20,-33 45,-57 25,-24 45,-49 45,-55 0,-7 19,-54 41,-106 33,-76 42,-106 43,-159 1,-67 -18,-154 -39,-180 -7,-8 -15,-27 -19,-42 -3,-15 -20,-43 -37,-62 -36,-42 -37,-79 -1,-84 13,-2 30,2 39,10 22,18 96,38 169,46 34,4 67,12 75,18 8,6 43,14 79,17 36,3 92,15 125,27 33,12 84,25 113,29 28,4 57,12 64,19 7,7 31,12 55,12 23,0 64,7 90,17 41,14 87,16 308,14 276,-3 300,-4 410,-20 39,-5 95,-10 126,-10 38,-1 61,-6 69,-16 7,-8 18,-15 25,-15 8,0 36,-12 64,-26 29,-14 68,-28 89,-31 47,-6 98,-30 137,-64 17,-14 50,-34 75,-44 89,-37 111,-95 65,-176 -14,-24 -27,-51 -31,-59 -3,-8 -12,-27 -20,-42 -8,-14 -14,-35 -14,-45 0,-10 -13,-34 -30,-53 -16,-19 -29,-43 -30,-54 0,-20 -56,-96 -71,-96 -12,0 -39,-28 -62,-63 -9,-15 -24,-27 -31,-27 -8,0 -41,-20 -75,-45 -34,-25 -69,-45 -79,-45 -10,0 -27,-7 -38,-15 -10,-8 -27,-15 -37,-15 -11,0 -31,-6 -45,-13 -15,-8 -42,-21 -60,-30 -19,-9 -44,-17 -57,-17 -24,0 -113,-21 -149,-36 -18,-7 -19,-19 -13,-305 3,-167 10,-305 15,-316 6,-11 11,-124 11,-269 1,-138 6,-275 11,-305 10,-56 28,-209 29,-244 0,-11 4,-42 10,-70 5,-27 10,-101 10,-163 1,-62 6,-122 11,-133 6,-11 13,-117 15,-247 3,-125 8,-265 12,-312 10,-123 17,-248 26,-512 3,-75 10,-146 17,-157 6,-12 11,-75 12,-148 l 1,-126 36,-39 c 20,-21 43,-38 51,-38 9,0 28,-14 43,-32 l 28,-31 35,16 c 32,16 36,16 62,0 15,-10 41,-30 57,-46 27,-26 35,-28 78,-22 44,5 51,3 95,-32 63,-51 112,-105 112,-123 0,-8 14,-28 29,-43 20,-19 31,-42 34,-70 3,-23 10,-64 17,-92 15,-69 -5,-184 -38,-217 -7,-7 -12,-19 -12,-28 0,-18 -37,-53 -65,-60 -12,-4 -21,-16 -23,-32 -3,-22 6,-34 51,-67 29,-22 68,-61 86,-86 18,-25 41,-50 53,-56 26,-14 13,-25 -38,-34 -46,-7 -64,6 -43,31 13,16 2,33 -60,88 -19,17 -43,40 -53,51 -13,13 -30,19 -58,18 -53,-2 -60,-8 -60,-47 0,-38 51,-91 117,-122 40,-18 42,-21 37,-52 -5,-27 -1,-38 30,-73 21,-22 35,-46 33,-52 -2,-8 -57,-14 -178,-17 l -174,-5 3,-35 c 2,-19 4,-55 5,-79 l 2,-43 -44,-2 c -51,-3 -68,19 -33,42 28,19 27,47 -3,97 -14,22 -29,49 -34,60 -15,34 -163,175 -183,175 -10,0 -30,7 -43,16 -23,15 -32,15 -108,0 -45,-9 -95,-17 -112,-19 -26,-2 -30,-7 -33,-33 -2,-19 3,-36 12,-44 11,-9 16,-30 16,-71 0,-48 4,-60 22,-73 12,-9 30,-16 39,-16 9,0 22,-7 29,-15 7,-8 20,-15 30,-15 10,0 23,-7 30,-15 7,-8 25,-15 40,-15 15,0 33,-7 40,-15 7,-8 24,-15 39,-15 14,0 33,-4 41,-10 12,-8 12,-10 -3,-15 -41,-16 -171,13 -190,43 -4,6 -18,12 -31,12 -13,0 -29,7 -36,15 -7,8 -25,15 -40,15 -23,0 -32,-8 -50,-41 -11,-23 -34,-53 -51,-68 -16,-14 -29,-29 -29,-34 0,-15 -44,-67 -57,-67 -8,0 -31,-11 -51,-25 -41,-28 -59,-30 -84,-11 -31,23 -21,36 26,36 30,0 46,5 50,15 3,8 14,15 23,15 18,0 110,110 145,172 9,17 22,36 27,41 17,17 13,130 -6,168 -32,64 -37,66 -232,63 l -175,-2 -29,-32 c -28,-31 -28,-34 -24,-128 4,-115 18,-153 75,-210 23,-23 42,-47 42,-53 0,-7 8,-18 17,-25 10,-7 14,-16 10,-21 -5,-4 -14,0 -21,10 -7,9 -16,17 -19,17 -10,0 -77,70 -77,80 0,6 -4,10 -10,10 -5,0 -21,20 -36,45 -36,63 -49,67 -102,39 -25,-13 -53,-24 -62,-24 -10,0 -23,-7 -30,-15 -7,-8 -25,-15 -39,-15 -15,0 -36,-7 -47,-15 -13,-10 -47,-14 -116,-15 h -98 v 28 c 0,15 4,32 10,38 5,5 13,31 16,57 6,43 5,47 -17,55 -23,9 -227,-9 -246,-21 -5,-3 -15,-2 -23,3 -11,7 -11,12 3,33 22,33 33,102 18,111 -6,4 -11,16 -11,26 0,13 10,20 39,25 54,9 110,63 104,99 -4,16 -1,26 7,26 17,0 70,-33 70,-43 0,-5 -17,-23 -37,-40 -118,-102 -114,-97 -111,-141 l 3,-41 51,-3 c 36,-2 54,1 64,13 7,8 28,15 49,15 44,0 54,6 75,47 9,18 24,37 34,42 10,5 24,21 31,35 17,31 2,56 -33,56 -12,0 -27,5 -34,12 -16,16 -15,46 1,45 54,-2 65,33 22,73 -14,13 -25,31 -25,40 0,8 -7,26 -16,38 -13,19 -14,38 -9,108 4,46 11,87 16,90 5,3 9,23 9,46 0,36 7,47 60,101 38,39 60,70 60,84 0,30 -112,143 -142,143 -23,0 -68,-36 -68,-54 0,-6 -20,-34 -45,-63 -25,-28 -45,-58 -45,-67 0,-8 -4,-17 -9,-20 -5,-3 -18,-24 -30,-46 -17,-33 -21,-59 -21,-133 0,-91 1,-94 30,-122 17,-16 30,-34 30,-39 0,-6 14,-24 30,-40 17,-16 30,-33 30,-38 0,-4 5,-8 10,-8 13,0 50,-37 50,-51 0,-20 -44,-4 -57,20 -6,14 -28,34 -47,46 -53,32 -76,56 -76,78 0,11 -7,25 -16,31 -23,17 -23,239 0,265 9,10 16,30 16,45 0,17 11,39 30,57 29,30 29,30 12,62 -23,43 -41,66 -84,105 l -36,34 -36,-38 c -20,-20 -36,-45 -36,-54 0,-10 -7,-23 -15,-30 -8,-7 -15,-21 -15,-32 0,-10 -7,-21 -15,-24 -9,-4 -15,-19 -15,-35 0,-16 -7,-47 -16,-69 -12,-30 -15,-62 -12,-123 5,-102 30,-152 128,-257 38,-41 67,-76 64,-79 -3,-3 -13,-6 -22,-6 -9,-1 -27,-2 -39,-3 -27,-2 -133,-107 -133,-131 0,-9 5,-22 12,-29 9,-9 5,-12 -17,-11 -72,2 -108,31 -63,48 14,5 33,22 43,37 25,38 76,84 95,84 8,0 23,11 32,24 17,23 16,24 -25,62 -53,49 -77,86 -77,120 0,15 -7,32 -16,38 -23,17 -22,241 1,266 8,9 15,26 15,38 0,11 4,23 9,26 5,3 12,26 16,52 5,39 13,50 51,77 24,17 44,39 44,49 0,25 31,38 75,31 29,-5 40,-2 47,10 11,21 28,22 28,2 0,-8 -7,-15 -15,-15 -32,0 -17,-55 28,-104 24,-25 48,-46 53,-46 15,0 84,97 84,117 -1,36 -36,63 -79,63 -46,0 -49,5 -22,38 26,30 53,28 79,-8 30,-40 54,-38 101,9 21,21 52,45 67,53 25,11 30,20 34,65 3,29 11,58 18,65 8,8 12,44 12,101 0,50 5,98 12,110 7,12 13,54 15,92 1,39 7,113 13,165 6,52 15,156 20,230 5,74 13,160 19,190 5,30 10,106 10,168 1,81 5,121 16,143 12,22 16,65 16,179 1,98 6,165 15,196 8,26 14,81 14,123 0,42 7,107 15,146 8,38 15,119 15,180 0,60 7,164 15,230 8,66 15,176 15,245 0,69 5,141 11,160 7,19 15,67 20,105 4,39 13,102 18,140 5,39 10,121 10,183 1,62 6,122 11,132 8,14 7,25 -2,40 -15,24 -118,75 -171,85 -20,4 -41,13 -48,21 -6,8 -18,14 -25,14 -8,0 -33,14 -56,30 -22,17 -46,30 -51,30 -6,0 -34,25 -64,55 -29,31 -64,60 -77,65 -15,5 -34,29 -50,64 -15,31 -33,56 -41,56 -8,0 -61,46 -117,102 -57,56 -119,110 -138,120 -39,21 -81,23 -98,6 -8,-8 -15,-8 -27,2 -21,17 -19,27 11,63 22,26 24,36 18,71 -6,40 -46,109 -78,135 -9,8 -16,22 -16,33 0,10 -19,45 -42,76 -44,59 -78,123 -78,148 0,8 -7,17 -15,20 -8,4 -15,16 -15,29 0,12 -7,28 -15,35 -8,7 -15,26 -15,42 0,16 -7,43 -16,61 -13,25 -15,48 -11,118 6,85 10,94 74,221 7,14 13,35 13,46 0,23 37,109 50,117 6,3 10,13 10,21 0,8 14,33 30,56 17,22 30,46 30,53 0,25 42,66 64,63 19,-3 22,-11 27,-83 z"
       id="path14"
       style="fill:#214478;stroke-width:0.981013" />
    <path
       d="m 6765,8918 c -11,-6 -35,-15 -55,-19 -19,-4 -66,-19 -105,-33 -44,-16 -91,-26 -127,-26 -31,0 -69,-4 -83,-10 -14,-5 -59,-13 -98,-16 -40,-4 -82,-13 -94,-20 -12,-8 -35,-14 -51,-14 -15,0 -37,-7 -48,-15 -10,-8 -30,-15 -44,-15 -14,0 -38,-7 -54,-15 -15,-8 -36,-15 -46,-15 -10,0 -23,-7 -30,-15 -8,-10 -30,-15 -62,-15 -55,0 -102,-20 -119,-51 -14,-27 -2,-40 44,-44 19,-2 44,-8 55,-14 12,-6 43,-11 70,-11 32,0 54,-5 62,-15 17,-21 158,-21 186,0 11,8 42,14 74,15 34,0 64,6 78,16 12,8 26,13 31,9 14,-8 351,14 388,26 18,5 118,10 222,10 162,1 193,-1 206,-15 13,-12 37,-16 104,-16 49,0 109,-7 137,-15 27,-8 60,-15 74,-15 14,0 34,-7 44,-15 11,-8 26,-15 34,-15 8,0 34,-13 59,-30 24,-16 50,-30 56,-30 18,0 47,-37 47,-61 0,-34 19,-59 45,-59 13,0 27,5 30,11 4,5 18,14 31,19 13,5 24,17 24,26 0,9 14,33 30,54 25,32 30,47 30,92 0,30 -5,59 -11,65 -6,6 -14,26 -18,44 -6,28 -16,38 -69,65 -34,18 -74,42 -88,53 -15,12 -38,21 -53,21 -14,1 -37,7 -51,15 -14,8 -41,14 -61,15 -20,0 -53,7 -72,15 -20,8 -58,15 -85,15 -32,0 -54,5 -62,15 -9,11 -33,15 -89,15 -42,0 -103,7 -136,15 -74,18 -321,20 -350,3 z"
       id="path16"
       style="fill:#214478;stroke-width:0.981013" />
    <path
       d="m 6570,8555 c -19,-7 -57,-14 -85,-15 -27,0 -68,-7 -90,-15 -22,-8 -67,-15 -100,-15 -68,0 -89,-9 -83,-35 4,-21 117,-61 212,-75 32,-5 65,-15 75,-23 11,-10 54,-16 138,-20 67,-3 131,-11 142,-16 11,-6 81,-11 161,-11 108,0 148,-4 171,-15 37,-20 270,-19 339,1 25,7 65,15 90,19 51,8 100,31 100,46 0,15 -72,99 -86,99 -6,0 -32,11 -58,25 -50,26 -81,32 -91,15 -9,-15 -83,-12 -92,4 -4,7 -44,21 -89,30 -107,21 -599,22 -654,1 z"
       id="path18"
       style="fill:#214478;stroke-width:0.981013" />
    <path
       d="m 6633,7914 c -7,-3 -15,-22 -18,-42 -4,-20 -11,-50 -17,-65 -9,-24 -7,-31 12,-52 l 23,-25 219,2 c 247,2 238,-2 238,82 0,38 -4,48 -30,66 -24,17 -38,20 -74,15 -37,-6 -153,2 -306,20 -19,2 -40,2 -47,-1 z"
       id="path20"
       style="fill:#214478;stroke-width:0.981013" />
    <path
       d="m 6490,6550 c -12,-7 -16,-45 -21,-197 -3,-111 -10,-200 -17,-216 -8,-18 -12,-88 -12,-193 0,-110 -4,-173 -12,-187 -7,-12 -16,-47 -21,-77 -9,-56 -12,-89 -25,-270 -4,-58 -13,-115 -20,-127 -7,-13 -12,-63 -12,-125 0,-57 -5,-121 -11,-143 -6,-22 -15,-116 -20,-210 -5,-93 -9,-181 -10,-195 -1,-14 -5,-56 -10,-95 -5,-38 -10,-88 -11,-110 -1,-22 -10,-56 -20,-75 -22,-42 -23,-64 -4,-79 17,-14 45,-3 86,34 14,13 45,29 70,35 50,13 36,22 123,-84 33,-40 43,-46 77,-46 27,0 53,9 83,30 25,17 52,30 60,30 8,0 20,7 27,15 25,30 77,14 139,-43 14,-13 38,-26 53,-29 15,-3 35,-14 44,-24 9,-11 21,-19 27,-19 20,0 135,83 140,101 3,12 17,22 36,25 18,4 36,15 41,25 15,27 13,386 -2,412 -7,12 -16,78 -21,147 -4,69 -9,150 -12,180 -3,30 -9,134 -14,231 -5,96 -14,193 -19,215 -5,21 -10,128 -12,238 -1,109 -6,222 -11,250 -5,28 -12,161 -15,296 -5,185 -10,251 -20,268 l -14,22 h -313 c -179,0 -318,-4 -327,-10 z"
       id="path22"
       style="fill:#214478;stroke-width:0.981013" />
    <path
       d="m 6133,4471 c -17,-14 -23,-30 -23,-58 0,-33 5,-42 31,-57 41,-24 54,-16 74,43 12,38 14,55 5,70 -14,27 -57,27 -87,2 z"
       id="path24"
       style="fill:#214478;stroke-width:0.981013" />
    <path
       d="m 7350,4466 c -5,-15 -5,-38 1,-59 5,-19 8,-48 7,-63 -4,-56 2,-85 18,-91 19,-7 33,12 28,36 -6,25 10,42 47,50 28,5 35,12 39,36 10,53 0,85 -25,85 -12,0 -28,7 -35,15 -20,25 -69,19 -80,-9 z"
       id="path26"
       style="fill:#214478;stroke-width:0.981013" />
    <path
       d="m 7543,4408 c -13,-29 6,-68 33,-68 11,0 31,-11 44,-25 28,-30 38,-31 56,-7 20,26 17,48 -11,66 -14,9 -25,25 -25,36 0,17 -7,20 -43,20 -36,0 -46,-4 -54,-22 z"
       id="path28"
       style="fill:#214478;stroke-width:0.981013" />
    <path
       d="m 7752,4342 c -13,-9 -22,-25 -22,-40 0,-14 -7,-34 -17,-44 -15,-17 -14,-22 13,-76 27,-54 29,-65 32,-199 4,-164 6,-159 -97,-265 -61,-63 -92,-81 -105,-59 -3,4 21,32 54,60 33,29 60,59 60,67 0,8 14,33 30,56 28,38 30,48 30,123 0,83 -11,119 -74,235 -17,30 -108,138 -118,139 -13,2 -48,-42 -48,-60 0,-10 -14,-28 -31,-42 -22,-17 -32,-35 -36,-64 -5,-36 -1,-45 31,-80 20,-22 36,-49 36,-60 0,-10 7,-28 15,-39 21,-28 21,-207 0,-224 -8,-7 -15,-20 -15,-28 0,-16 -66,-82 -82,-82 -19,0 -6,38 22,65 16,15 36,43 45,60 20,44 20,158 0,175 -8,7 -15,18 -15,25 0,7 -7,18 -15,25 -8,7 -15,20 -15,30 0,14 -50,76 -132,162 -11,11 -32,18 -55,18 -33,0 -46,-8 -90,-53 -29,-30 -53,-59 -53,-66 0,-7 19,-34 41,-60 39,-45 56,-79 80,-158 5,-18 14,-35 19,-38 12,-8 13,-102 1,-109 -5,-3 -12,-18 -16,-33 -3,-16 -27,-49 -52,-75 -25,-25 -42,-51 -39,-57 10,-16 49,-14 72,4 10,8 28,15 38,15 11,0 27,6 35,14 9,8 30,17 48,20 26,6 32,4 38,-13 8,-25 47,-28 65,-6 7,8 21,15 31,15 11,0 28,5 38,12 30,19 53,3 49,-34 -3,-35 -3,-35 -81,-37 -30,-1 -40,-6 -49,-26 -11,-24 -8,-30 33,-70 24,-24 59,-59 78,-79 25,-26 42,-36 65,-36 17,0 41,-7 54,-15 26,-19 208,-23 226,-5 7,7 6,20 -3,43 -7,17 -16,45 -18,60 -3,17 -14,32 -28,37 -13,5 -41,26 -63,47 -55,52 -94,73 -136,73 -20,0 -36,4 -36,9 0,10 24,21 48,21 9,0 30,7 46,15 15,8 36,15 45,15 10,0 27,14 39,30 13,17 29,30 37,30 17,0 75,48 75,63 0,7 21,34 45,60 33,35 45,57 45,78 0,17 7,43 15,58 12,25 12,31 0,47 -8,11 -15,35 -15,54 0,41 -29,103 -65,142 -14,14 -25,31 -25,37 0,21 -52,86 -78,97 -22,9 -32,8 -50,-4 z"
       id="path30"
       style="fill:#214478;stroke-width:0.981013" />
    <path
       d="m 6347,4230 c -25,-22 -51,-40 -59,-40 -12,0 -58,-51 -58,-64 0,-9 -93,-141 -112,-159 -17,-17 -18,-27 -12,-100 6,-69 12,-89 38,-125 52,-73 98,-122 114,-122 8,0 37,-13 64,-30 37,-23 60,-30 98,-30 47,0 50,2 50,25 0,18 -7,28 -25,35 -30,11 -95,109 -95,144 0,13 13,53 30,88 16,34 30,68 30,73 0,6 14,25 30,44 17,18 30,39 30,45 0,7 20,29 45,50 37,32 45,45 45,73 0,38 -33,83 -61,83 -8,0 -26,11 -39,25 -33,35 -60,31 -113,-15 z"
       id="path32"
       style="fill:#214478;stroke-width:0.981013" />
    <path
       d="m 6764,4205 c -10,-8 -27,-15 -36,-15 -10,0 -27,-13 -40,-30 -12,-16 -29,-30 -37,-30 -18,0 -181,-167 -181,-185 0,-7 -13,-37 -30,-68 -33,-63 -40,-126 -15,-147 8,-7 15,-19 15,-27 0,-36 59,-112 88,-113 7,0 30,-12 49,-27 36,-28 39,-28 207,-31 188,-4 226,5 276,60 13,16 32,28 42,28 19,0 43,21 71,60 22,31 23,143 2,193 -8,20 -15,46 -15,58 0,20 -102,147 -142,177 -9,7 -31,27 -49,45 -17,17 -44,40 -58,49 -32,22 -119,24 -147,3 z"
       id="path34"
       style="fill:#214478;stroke-width:0.981013" />
    <path
       d="m 6286,3515 c -11,-8 -26,-15 -33,-15 -46,0 -143,-168 -143,-245 0,-39 3,-47 25,-55 42,-16 144,0 204,31 30,16 62,29 71,29 34,0 84,44 92,80 4,19 14,59 22,89 9,29 13,58 10,62 -3,5 -26,9 -52,9 -26,0 -65,7 -87,15 -51,18 -85,18 -109,0 z"
       id="path36"
       style="fill:#214478;stroke-width:0.981013" />
    <path
       d="m 9912,10677 c -12,-13 -22,-30 -22,-39 0,-8 -33,-48 -73,-89 -78,-80 -109,-138 -86,-165 33,-40 106,-56 129,-29 7,8 19,15 26,15 15,0 94,75 94,89 0,5 7,14 15,21 8,7 15,20 15,30 0,10 7,23 15,30 24,20 18,60 -17,112 -37,54 -63,61 -96,25 z"
       id="path38"
       style="fill:#214478;stroke-width:0.981013" />
    <path
       d="m 3289,10569 c -16,-17 -29,-40 -29,-50 0,-28 41,-87 99,-144 28,-27 51,-55 51,-61 0,-16 65,-64 87,-64 10,1 29,10 43,21 21,18 25,30 24,74 0,44 -5,58 -31,88 -17,20 -34,45 -38,56 -3,12 -11,21 -16,21 -5,0 -19,10 -31,23 -36,35 -87,67 -109,67 -12,0 -34,-14 -50,-31 z"
       id="path40"
       style="fill:#214478;stroke-width:0.981013" />
    <path
       d="m 2937,10123 c -4,-3 -7,-20 -7,-37 0,-23 13,-44 51,-83 28,-29 57,-53 64,-53 21,0 48,46 40,69 -11,36 -90,111 -117,111 -13,0 -28,-3 -31,-7 z"
       id="path42"
       style="fill:#214478;stroke-width:0.981013" />
    <path
       d="m 2456,9726 c -40,-47 -47,-93 -18,-103 9,-3 32,-20 50,-37 l 32,-30 26,25 c 20,20 25,36 26,77 1,45 -3,57 -27,82 -16,17 -34,30 -41,30 -7,0 -29,-20 -48,-44 z"
       id="path44"
       style="fill:#214478;stroke-width:0.981013" />
    <path
       d="m 11000,9395 c -7,-8 -20,-15 -29,-15 -9,0 -34,-16 -56,-34 -35,-30 -38,-37 -27,-53 6,-10 16,-28 22,-40 14,-34 33,-28 94,30 48,46 56,58 56,90 0,32 -3,37 -24,37 -13,0 -29,-7 -36,-15 z"
       id="path46"
       style="fill:#214478;stroke-width:0.981013" />
    <path
       d="m 11515,8373 c -33,-8 -67,-19 -75,-24 -8,-5 -23,-12 -32,-15 -10,-4 -18,-10 -18,-13 0,-4 -13,-21 -30,-37 -16,-16 -32,-43 -36,-60 -12,-65 38,-104 135,-104 48,0 68,5 97,25 21,14 49,28 63,32 14,3 41,19 59,36 26,26 32,38 32,73 0,37 -5,47 -34,69 -43,33 -85,37 -161,18 z"
       id="path48"
       style="fill:#214478;stroke-width:0.981013" />
    <path
       d="m 1554,7642 c -52,-5 -65,-29 -62,-108 3,-68 3,-68 35,-75 17,-3 46,-18 63,-33 29,-24 39,-26 124,-26 84,0 95,2 114,23 45,48 13,187 -42,187 -12,0 -30,6 -41,14 -20,13 -132,24 -191,18 z"
       id="path50"
       style="fill:#214478;stroke-width:0.981013" />
    <path
       d="m 1412,7069 c -35,-35 -40,-63 -16,-97 12,-17 25,-22 63,-22 80,0 107,58 55,119 -33,39 -62,39 -102,0 z"
       id="path52"
       style="fill:#214478;stroke-width:0.981013" />
    <path
       d="m 11737,6992 c -23,-25 -21,-47 4,-71 16,-15 26,-18 40,-11 10,6 30,10 46,10 43,0 75,27 71,58 -3,26 -5,27 -74,30 -58,2 -73,0 -87,-16 z"
       id="path54"
       style="fill:#214478;stroke-width:0.981013" />
    <path
       d="m 1513,5939 c -22,-10 -53,-34 -67,-51 -15,-18 -31,-38 -36,-45 -6,-7 -10,-18 -10,-26 0,-17 46,-60 87,-81 40,-20 129,-21 176,-1 20,8 48,15 62,15 15,0 40,13 60,33 32,29 34,36 29,70 -5,26 -19,51 -42,73 -35,34 -36,34 -126,33 -67,0 -102,-6 -133,-20 z"
       id="path56"
       style="fill:#214478;stroke-width:0.981013" />
    <path
       d="m 11626,5899 c -27,-39 -18,-79 31,-128 22,-23 30,-24 157,-25 159,-1 176,7 176,80 0,37 -3,44 -22,48 -13,2 -48,9 -78,15 -56,11 -105,18 -196,27 -46,5 -53,3 -68,-17 z"
       id="path58"
       style="fill:#214478;stroke-width:0.981013" />
    <path
       d="m 11743,5149 c -20,-7 -23,-16 -23,-57 0,-58 28,-92 76,-92 61,0 96,78 56,126 -20,24 -76,36 -109,23 z"
       id="path60"
       style="fill:#214478;stroke-width:0.981013" />
    <path
       d="m 10658,3385 c -25,-33 -22,-50 10,-71 54,-37 84,-46 100,-30 13,12 13,20 2,48 -15,37 -57,77 -80,77 -8,0 -23,-10 -32,-24 z"
       id="path62"
       style="fill:#214478;stroke-width:0.981013" />
    <path
       d="m 10404,2897 c -49,-44 -51,-89 -8,-124 36,-29 45,-29 72,0 42,45 41,108 -3,140 -24,17 -25,17 -61,-16 z"
       id="path64"
       style="fill:#214478;stroke-width:0.981013" />
    <path
       d="m 8182,1733 c -20,-37 18,-173 47,-173 15,0 33,49 28,72 -3,13 -9,37 -13,53 -7,31 -31,65 -45,65 -5,0 -12,-8 -17,-17 z"
       id="path66"
       style="fill:#214478;stroke-width:0.981013" />
    <path
       d="m 5641,1702 c -35,-18 -100,-119 -101,-157 0,-11 -7,-31 -16,-44 -23,-32 -14,-104 17,-137 19,-20 32,-24 84,-24 56,0 64,3 93,33 21,22 32,43 32,62 0,17 7,39 15,49 10,14 15,44 15,95 -1,80 -12,105 -57,130 -28,15 -41,13 -82,-7 z"
       id="path68"
       style="fill:#214478;stroke-width:0.981013" />
    <path
       d="m 7326,1486 c -21,-71 -20,-109 2,-129 22,-20 58,-22 68,-5 11,18 4,160 -8,175 -24,29 -46,14 -62,-41 z"
       id="path70"
       style="fill:#214478;stroke-width:0.981013" />
  </g>
</svg>
